<?xml version="1.0" encoding="UTF-8"?>
<svg version="1.1" xmlns="http://www.w3.org/2000/svg" width="32" height="32">
<path d="M0 0 C3.12557701 2.87215185 3.96235511 4.2847471 4.1875 8.5625 C4.125625 9.696875 4.06375 10.83125 4 12 C4.42854995 14.31036915 4.42854995 14.31036915 5 16 C1.70287851 17.03623818 0.45517512 17.23288029 -2.6875 15.625 C-3.450625 15.08875 -4.21375 14.5525 -5 14 C-5.66 13.67 -6.32 13.34 -7 13 C-7 8.71 -7 4.42 -7 0 C-4.20824656 -1.39587672 -2.93876905 -0.97958968 0 0 Z " fill="#292525" transform="translate(17,8)"/>
<path d="M0 0 C2.91517292 1.07401108 4.77810176 1.77810176 7 4 C7.1953125 6.3828125 7.1953125 6.3828125 7.125 9.125 C7.10695313 10.03507812 7.08890625 10.94515625 7.0703125 11.8828125 C7.04710937 12.58148438 7.02390625 13.28015625 7 14 C6.01 13.67 5.02 13.34 4 13 C3.3125 10.9375 3.3125 10.9375 3 9 C2.01 9.33 1.02 9.66 0 10 C0 6.7 0 3.4 0 0 Z " fill="#C0BFBF" transform="translate(11,10)"/>
<path d="M0 0 C4.875 1.75 4.875 1.75 6 4 C4.68 3.67 3.36 3.34 2 3 C2.185625 3.598125 2.37125 4.19625 2.5625 4.8125 C3 7 3 7 2 10 C1.34 10 0.68 10 0 10 C0 6.7 0 3.4 0 0 Z " fill="#EAEAEA" transform="translate(11,10)"/>
<path d="M0 0 C0.99 0.33 1.98 0.66 3 1 C1.68 1.33 0.36 1.66 -1 2 C-1 5.63 -1 9.26 -1 13 C-0.34 13 0.32 13 1 13 C1.33 12.34 1.66 11.68 2 11 C2.33 12.32 2.66 13.64 3 15 C1.35 14.67 -0.3 14.34 -2 14 C-2 9.71 -2 5.42 -2 1 C-1.34 0.67 -0.68 0.34 0 0 Z " fill="#3B3738" transform="translate(12,7)"/>
</svg>
