<?xml version="1.0" encoding="UTF-8"?>
<svg version="1.1" xmlns="http://www.w3.org/2000/svg" width="512" height="512">
<path d="M0 0 C2.51275911 1.26681212 4.81245949 2.57398876 7.1875 4.0625 C8.71258388 4.98855835 10.23869354 5.91292872 11.765625 6.8359375 C13.01762695 7.59729004 13.01762695 7.59729004 14.29492188 8.37402344 C19.30099187 11.38308717 24.37319594 14.27791363 29.4375 17.1875 C31.68629847 18.48289837 33.93499505 19.77847365 36.18359375 21.07421875 C37.31265137 21.72438965 38.44170898 22.37456055 39.60498047 23.04443359 C46.14765071 26.8130794 52.68726799 30.5870245 59.22583008 34.36279297 C64.76270785 37.55931511 70.30354652 40.74862478 75.8515625 43.92578125 C110.18001258 63.60418187 110.18001258 63.60418187 121 73 C122.20849609 74.04414063 122.20849609 74.04414063 123.44140625 75.109375 C125.99971921 77.36741648 128.50659713 79.67053646 131 82 C132.29550781 83.19689453 132.29550781 83.19689453 133.6171875 84.41796875 C151.2582467 101.31759213 164.90630245 122.85545052 175 145 C175.50225098 146.08933838 175.50225098 146.08933838 176.01464844 147.20068359 C190.72140344 179.43816673 198.89571427 217.39727019 186.75 251.75 C179.54073489 269.20626211 166.82655599 279.99275851 150 288 C149.34 288 148.68 288 148 288 C151.50789767 296.5534109 155.19946736 305.01048398 159 313.4375 C159.57349479 314.71240672 160.14681415 315.98739236 160.7199707 317.26245117 C161.90201412 319.89173415 163.08479154 322.52068507 164.26806641 325.14941406 C166.39718424 329.88101715 168.51747642 334.61656396 170.63793945 339.35205078 C175.20649261 349.55445703 179.78669584 359.75152147 184.37992859 369.94284058 C187.43655094 376.72546721 190.48651388 383.51107173 193.53437805 390.29763794 C195.86070617 395.47472136 198.19813024 400.64663019 200.54344177 405.81513977 C202.0518674 409.14375644 203.55269785 412.47576095 205.05184937 415.80856323 C205.76175806 417.38227325 206.47494563 418.95450865 207.19155884 420.525177 C208.18058987 422.6940064 209.15797605 424.86773029 210.1328125 427.04296875 C210.425616 427.67756012 210.71841949 428.31215149 211.02009583 428.9659729 C212.54592586 432.40613976 213.79607244 435.25166091 213 439 C209.8169194 442.1245988 206.10088907 444.21715029 202.23046875 446.3984375 C201.10576172 447.03595947 199.98105469 447.67348145 198.82226562 448.33032227 C198.22969971 448.66363556 197.63713379 448.99694885 197.02661133 449.34036255 C193.88117165 451.10990724 190.74393321 452.89390457 187.60546875 454.67578125 C186.64929153 455.21787483 186.64929153 455.21787483 185.67379761 455.7709198 C179.42065176 459.31949147 173.20604956 462.93214267 167 466.5625 C166.06567139 467.10890137 165.13134277 467.65530273 164.16870117 468.21826172 C163.26740479 468.74564941 162.3661084 469.27303711 161.4375 469.81640625 C160.55707031 470.3283252 159.67664063 470.84024414 158.76953125 471.36767578 C156.7752882 472.54305563 154.79506455 473.74233954 152.82421875 474.95654297 C151.76847656 475.59865723 150.71273437 476.24077148 149.625 476.90234375 C148.19027344 477.78974243 148.19027344 477.78974243 146.7265625 478.69506836 C143.76499303 480.11247424 142.23022227 480.46210527 139 480 C136.67358398 478.96875 136.67358398 478.96875 134.24609375 477.5 C133.32393066 476.95093994 132.40176758 476.40187988 131.45166016 475.83618164 C130.4569873 475.2302417 129.46231445 474.62430176 128.4375 474 C126.26775831 472.70563685 124.09715024 471.41272515 121.92578125 470.12109375 C121.0796225 469.61514931 121.0796225 469.61514931 120.21636963 469.09898376 C114.48122067 465.67336717 108.68315266 462.35950894 102.87579346 459.05822754 C99.94758456 457.39286934 97.02289266 455.72135321 94.09765625 454.05078125 C90.50180659 451.99801377 86.9055032 449.94604954 83.30810547 447.89599609 C79.72329974 445.85244036 76.14281805 443.80140776 72.5625 441.75 C71.47275879 441.1300415 70.38301758 440.51008301 69.26025391 439.87133789 C68.24753418 439.28989014 67.23481445 438.70844238 66.19140625 438.109375 C65.30654541 437.60374023 64.42168457 437.09810547 63.51000977 436.57714844 C58.82539767 433.63360266 55.67878677 431.15137734 53.30859375 426.08984375 C52.6120166 424.62333374 52.6120166 424.62333374 51.90136719 423.12719727 C51.41829102 422.07459717 50.93521484 421.02199707 50.4375 419.9375 C49.92735352 418.84945068 49.41720703 417.76140137 48.89160156 416.64038086 C47.24221175 413.1020518 45.61633025 409.55350377 44 406 C43.71674866 405.37855103 43.43349731 404.75710205 43.1416626 404.11682129 C41.16287009 399.77198721 39.20130911 395.4197495 37.25 391.0625 C36.72462646 389.89001709 36.19925293 388.71753418 35.65795898 387.50952148 C35.17786377 386.42485596 34.69776855 385.34019043 34.203125 384.22265625 C33.56358887 382.78031616 33.56358887 382.78031616 32.91113281 381.30883789 C32 379 32 379 32 377 C31.3201001 377.39791748 30.6402002 377.79583496 29.93969727 378.20581055 C26.81455645 380.03405377 23.68853494 381.86078606 20.5625 383.6875 C18.95858398 384.62625977 18.95858398 384.62625977 17.32226562 385.58398438 C15.20706095 386.8194709 13.08811199 388.04857103 10.96533203 389.27099609 C9.10973182 390.35294576 7.2690457 391.4613825 5.45263672 392.60791016 C1.97413646 394.74256187 -0.27463201 395.9599797 -4.3984375 396.1875 C-9.58432085 394.47762089 -13.97593492 391.83401649 -18.625 389 C-20.75891369 387.72622589 -22.89303795 386.45280449 -25.02734375 385.1796875 C-26.15382324 384.50260742 -27.28030273 383.82552734 -28.44091797 383.12792969 C-32.13304312 380.91385887 -35.847403 378.73885339 -39.56640625 376.5703125 C-40.20149109 376.19976746 -40.83657593 375.82922241 -41.49090576 375.44744873 C-42.76567217 374.70380458 -44.04049276 373.96025331 -45.31536865 373.21679688 C-72.82830465 357.17169535 -72.82830465 357.17169535 -75 355 C-75.10021647 352.12566771 -75.13438278 349.27529323 -75.12698364 346.40045166 C-75.12854363 345.48612389 -75.13010362 344.57179613 -75.13171089 343.62976146 C-75.13572763 340.53733802 -75.13252781 337.44496294 -75.12939453 334.35253906 C-75.13074899 332.14237947 -75.13252917 329.9322201 -75.13470459 327.72206116 C-75.13929384 321.67374916 -75.13747802 315.62545409 -75.1343255 309.57714176 C-75.1317857 303.17892983 -75.13414615 296.78071931 -75.13571167 290.38250732 C-75.13765587 278.85903058 -75.13453046 267.33556232 -75.12945233 255.81208691 C-75.12506497 245.54513079 -75.1257615 235.27818633 -75.13037109 225.01123047 C-75.14423344 192.78640954 -75.12419801 160.56191187 -75.02918983 128.33720827 C-75.01263247 122.71185796 -74.99756342 117.0865171 -74.98747253 111.46115112 C-74.96680014 99.99173662 -74.92538814 88.52296683 -74.83785629 77.0538559 C-74.81348037 73.75200184 -74.80034662 70.45041706 -74.79761124 67.14847565 C-74.7940816 63.40990329 -74.76769148 59.67226136 -74.72170877 55.93397617 C-74.70329792 53.97183435 -74.70906885 52.00951147 -74.7157402 50.04729462 C-74.6965012 48.89866188 -74.67726219 47.75002914 -74.65744019 46.56658936 C-74.64801297 45.0856888 -74.64801297 45.0856888 -74.63839531 43.57487106 C-73.55277599 39.19618951 -70.07056946 37.66929634 -66.42651367 35.39111328 C-65.51619385 34.87274902 -64.60587402 34.35438477 -63.66796875 33.8203125 C-62.63381836 33.22806885 -61.59966797 32.6358252 -60.53417969 32.02563477 C-59.42977539 31.39842529 -58.32537109 30.77121582 -57.1875 30.125 C-55.43780524 29.12496653 -53.68901767 28.12335926 -51.9402771 27.12165833 C-50.74330293 26.43611597 -49.5460552 25.75105106 -48.34854126 25.06645203 C-42.2935085 21.60305696 -36.27109235 18.08450703 -30.25 14.5625 C-28.28002172 13.41523785 -26.30997234 12.26809777 -24.33984375 11.12109375 C-21.07029626 9.21554344 -17.81181383 7.29400283 -14.56640625 5.34765625 C-13.91961914 4.96472412 -13.27283203 4.58179199 -12.60644531 4.18725586 C-10.96915165 3.21775875 -9.33776479 2.23830386 -7.70703125 1.2578125 C-4.68002529 -0.14867512 -3.28241714 -0.57020841 0 0 Z M-9.57421875 13.0078125 C-10.70601562 13.6584668 -11.8378125 14.30912109 -13.00390625 14.97949219 C-14.23194333 15.69436521 -15.45980405 16.40954128 -16.6875 17.125 C-17.94245152 17.85103002 -19.19766256 18.57661164 -20.453125 19.30175781 C-23.03123235 20.79231291 -25.60694121 22.28690679 -28.18115234 23.78417969 C-31.79555973 25.88471415 -35.42208096 27.96331639 -39.05078125 30.0390625 C-41.20078216 31.2755874 -43.3505343 32.51254498 -45.5 33.75 C-46.50119873 34.32121582 -47.50239746 34.89243164 -48.53393555 35.48095703 C-49.46117432 36.01833496 -50.38841309 36.55571289 -51.34375 37.109375 C-52.15005859 37.57311523 -52.95636719 38.03685547 -53.78710938 38.51464844 C-56.16998304 40.11409718 -58.03902554 41.91240262 -60 44 C-43.367655 53.72676952 -26.696342 63.38350154 -10 73 C-3.4699978 76.76104875 3.05897991 80.52378109 9.58203125 84.296875 C13.88209754 86.78324996 18.19296804 89.24936314 22.51171875 91.703125 C33.26134891 97.84059389 43.57971058 103.92940117 53 112 C53.86109375 112.73476562 54.7221875 113.46953125 55.609375 114.2265625 C58.12338223 116.43607817 60.57052668 118.69798713 63 121 C64.32451172 122.24523437 64.32451172 122.24523437 65.67578125 123.515625 C97.90642009 154.69774235 122.92393226 203.03040141 124.23828125 248.2734375 C124.58875795 270.52244937 122.82242908 291.30362344 108.125 309.125 C100.25035306 317.18384921 89.8315694 321.45584067 79 324 C80.55652857 329.03407032 82.59861158 333.72852805 84.7890625 338.5078125 C85.1642099 339.33312469 85.5393573 340.15843689 85.9258728 341.00875854 C86.73417303 342.78651383 87.54375568 344.56368648 88.35449219 346.34033203 C90.52677841 351.10149588 92.68900534 355.86722359 94.8515625 360.6328125 C95.29002502 361.59858215 95.72848755 362.56435181 96.18023682 363.55938721 C100.16813443 372.35181993 104.09295065 381.17141478 108 390 C114.70461236 405.14212229 121.51240805 420.23638127 128.35546875 435.31640625 C128.73316406 436.14928162 129.11085938 436.98215698 129.5 437.840271 C130.24270463 439.47754949 130.98617882 441.11447915 131.73046875 442.7510376 C133.60855373 446.88942719 135.45898542 451.03762948 137.26953125 455.20605469 C137.6341748 456.04159882 137.99881836 456.87714294 138.37451172 457.73800659 C139.06797167 459.33088204 139.75605882 460.92611053 140.43798828 462.5239563 C141.90557237 466.45712568 141.90557237 466.45712568 145 469 C147.37067351 467.93758282 147.37067351 467.93758282 150.0390625 466.30859375 C151.08336426 465.69999512 152.12766602 465.09139648 153.20361328 464.46435547 C154.3326709 463.79549316 155.46172852 463.12663086 156.625 462.4375 C157.79237327 461.75333014 158.96018459 461.0699072 160.12841797 460.38720703 C162.54764287 458.97197101 164.96421933 457.55235874 167.37890625 456.12939453 C170.83849597 454.09219637 174.30852146 452.07332591 177.78125 450.05859375 C190.48734456 442.68990074 190.48734456 442.68990074 203 435 C195.43918143 416.96015219 187.35617186 399.15714792 179.30770874 381.3314209 C176.02514245 374.06022328 172.75926233 366.78167669 169.5 359.5 C165.82465137 351.291247 162.14006441 343.08675299 158.4453125 334.88671875 C158.04749573 334.00360016 157.64967896 333.12048157 157.23980713 332.21060181 C155.27876915 327.8573704 153.31690452 323.50451535 151.35351562 319.15234375 C149.91598424 315.96547313 148.48544148 312.77559879 147.05957031 309.58349609 C145.68852768 306.51675874 144.28952297 303.46504292 142.87011719 300.42041016 C142.21273092 298.98477364 141.55549693 297.54906738 140.8984375 296.11328125 C140.58935455 295.46586472 140.28027161 294.81844818 139.96182251 294.15141296 C138.6945119 291.35037509 137.98652655 289.28680978 138.13183594 286.19360352 C139.54041208 282.63453248 142.66252825 281.36825612 145.875 279.625 C147.24913482 278.83669861 148.62282968 278.04762982 149.99609375 277.2578125 C151.33064262 276.50505488 152.66527269 275.75244119 154 275 C168.00035205 266.93552033 176.18898692 257.08209851 180.83666992 241.41601562 C185.42931809 224.00352644 184.35124627 204.36951295 180 187 C179.80664062 186.20352051 179.61328125 185.40704102 179.4140625 184.58642578 C171.79696751 153.87707292 156.88807043 124.81772694 136 101 C135.26136719 100.15179688 134.52273438 99.30359375 133.76171875 98.4296875 C131.54043853 95.92067668 129.28413482 93.45185101 127 91 C126.30390625 90.24976562 125.6078125 89.49953125 124.890625 88.7265625 C113.24455011 76.61294445 99.42454755 68.34705065 85 60 C84.00242676 59.42088867 83.00485352 58.84177734 81.97705078 58.24511719 C75.44308341 54.4546209 68.89710033 50.68531582 62.34667969 46.92333984 C56.89361407 43.7894581 51.447018 40.64437753 46 37.5 C39.89021304 33.97329933 33.78005591 30.44727947 27.66400146 26.93145752 C25.88250422 25.90724335 24.10135678 24.88242349 22.3203125 23.85742188 C20.08923375 22.57366625 17.85750427 21.29104061 15.625 20.00976562 C10.53526276 17.07960519 5.50708499 14.11998311 0.62548828 10.85205078 C-3.35170666 8.76727902 -6.07564396 10.98369521 -9.57421875 13.0078125 Z M-65 52 C-66.50756765 99.68257376 -66.58387037 147.39437882 -66.75568962 195.09684658 C-66.76676954 198.11770647 -66.77806354 201.13856546 -66.78955078 204.15942383 C-66.79239532 204.90984001 -66.79523985 205.66025619 -66.79817058 206.43341226 C-66.84600955 218.68326279 -66.94271671 230.93227369 -67.05712186 243.18166315 C-67.17434175 255.83904647 -67.24233596 268.49598753 -67.26382077 281.15389973 C-67.27849435 288.92459848 -67.33074833 296.69311597 -67.43226756 304.46317364 C-67.50557657 310.39256668 -67.51004601 316.32075796 -67.48869324 322.25060654 C-67.49067312 324.67752916 -67.51492692 327.10455162 -67.56312943 329.53099632 C-68.35138688 341.12326213 -68.35138688 341.12326213 -64.75511789 351.72451138 C-61.30215306 354.89109839 -57.36919887 356.37852335 -53 358 C-50.85975654 359.20124605 -48.73658657 360.43399613 -46.640625 361.7109375 C-44.51149476 362.93417008 -42.38126757 364.15549515 -40.25 365.375 C-27.38857526 372.75385393 -27.38857526 372.75385393 -21.609375 376.19140625 C-20.82014648 376.66078613 -20.03091797 377.13016602 -19.21777344 377.61376953 C-17.77607705 378.47428008 -16.33649584 379.33834782 -14.89941406 380.20654297 C-11.6752943 382.30379524 -11.6752943 382.30379524 -8 383 C-7.99191315 381.83124329 -7.98382629 380.66248657 -7.97549438 379.45831299 C-7.89805918 368.45178479 -7.81032646 357.4453806 -7.71247292 346.43901443 C-7.66249567 340.78033151 -7.61616565 335.12166738 -7.578125 329.46289062 C-7.5412904 324.00336944 -7.49493522 318.54400499 -7.44193649 313.08461761 C-7.42338287 311.00021866 -7.40827851 308.9157861 -7.39665604 306.83133698 C-7.3798103 303.91506346 -7.35077902 300.99914968 -7.31884766 298.08300781 C-7.31668747 297.21841949 -7.31452728 296.35383118 -7.31230164 295.46304321 C-7.30113815 294.66661407 -7.28997467 293.87018494 -7.2784729 293.04962158 C-7.27017676 292.01536985 -7.27017676 292.01536985 -7.26171303 290.96022415 C-6.95395255 288.65510575 -6.13361505 287.01538753 -5 285 C-2.73828125 285.04296875 -2.73828125 285.04296875 0 286 C1.55777249 288.45710505 2.67451542 290.66029346 3.8125 293.3125 C4.1852002 294.13806396 4.55790039 294.96362793 4.94189453 295.81420898 C6.31377857 298.86790524 7.65584733 301.93399887 9 305 C10.15406297 307.60051511 11.31349916 310.19862728 12.47265625 312.796875 C14.46157208 317.25933817 16.44728841 321.72317365 18.42431641 326.19091797 C24.57750328 340.09323099 30.83682528 353.94632863 37.11572266 367.79223633 C40.71200486 375.72421169 44.30353713 383.65783405 47.84765625 391.61328125 C48.14262497 392.27472641 48.43759369 392.93617157 48.74150085 393.61766052 C50.0748448 396.60848129 51.40501687 399.60058528 52.72924805 402.59545898 C53.65746354 404.68037132 54.59918078 406.75933397 55.55541992 408.83154297 C56.58138728 411.08183947 57.55853059 413.35467966 58.5012207 415.64111328 C62.41537556 424.76345529 66.86565288 428.96739143 75.6875 433.375 C77.41162729 434.30157349 79.1357171 435.22822258 80.85791016 436.15838623 C82.6617015 437.12640202 84.47381024 438.07723476 86.28759766 439.02636719 C91.96928733 442.02052032 97.51538106 445.25405714 103.07681274 448.46417236 C105.91787651 450.1007385 108.7682205 451.72099252 111.6171875 453.34375 C117.76760996 456.85720004 123.88843841 460.41940558 130 464 C130.33 463.34 130.66 462.68 131 462 C130.16723411 459.73555595 129.26817114 457.59547922 128.265625 455.40625 C127.96102356 454.72485962 127.65642212 454.04346924 127.34259033 453.34143066 C126.31923679 451.05749831 125.28462207 448.77884735 124.25 446.5 C123.52342892 444.88441107 122.79753052 443.26851947 122.07226562 441.65234375 C120.12514603 437.31949558 118.16789716 432.99130365 116.20727539 428.66455078 C115.01395748 426.03080525 113.82214552 423.39638383 112.63085938 420.76171875 C109.45271535 413.73331404 106.27327793 406.70549958 103.08886719 399.67993164 C96.21676242 384.5133153 89.42787022 369.31089621 82.69750977 354.08088684 C80.94541424 350.12035743 79.17814235 346.16717674 77.39343262 342.22123718 C76.58683507 340.43665345 75.78456036 338.65011784 74.98242188 336.86352539 C74.02745844 334.7370332 73.06573229 332.61355862 72.09570312 330.49389648 C71.68255859 329.56907471 71.26941406 328.64425293 70.84375 327.69140625 C70.30524414 326.50333374 70.30524414 326.50333374 69.75585938 325.29125977 C68.91503751 322.74245058 68.86075202 320.66665781 69 318 C70.3921875 317.5978125 70.3921875 317.5978125 71.8125 317.1875 C72.451875 317.00058594 73.09125 316.81367188 73.75 316.62109375 C75.34453489 316.18093568 76.95048382 315.78121485 78.5625 315.41015625 C90.28616383 312.59581081 99.87667799 306.59010668 106.6875 296.5 C119.79563432 273.95400898 118.36376461 245.4996291 112 221 C105.59760309 197.39516288 95.26514026 174.88940814 81 155 C80.58008789 154.41331543 80.16017578 153.82663086 79.72753906 153.22216797 C73.72870651 144.94509026 67.04186183 137.38834996 60 130 C59.22269531 129.15824219 58.44539063 128.31648438 57.64453125 127.44921875 C44.33448623 113.47032725 28.01063047 104.29194351 11.31930542 94.98336792 C5.49993782 91.73408161 -0.25364696 88.37656845 -6 85 C-15.37428054 79.50796543 -24.79434148 74.10018244 -34.23651123 68.72607422 C-42.27730545 64.14948696 -50.28931046 59.53196564 -58.20483398 54.74121094 C-61.37894361 52.676418 -61.37894361 52.676418 -65 52 Z M1 310 C1 334.42 1 358.84 1 384 C7.58475579 380.40831503 14.1578985 376.8131899 20.6875 373.125 C21.40099609 372.7228125 22.11449219 372.320625 22.84960938 371.90625 C24.5667877 370.93817631 26.28345277 369.96919229 28 369 C24.40046662 360.21234051 20.59230741 351.53063024 16.6875 342.875 C15.82667416 340.96189338 14.96645076 339.04851667 14.10627747 337.13511658 C13.5387374 335.87271741 12.97102097 334.61039752 12.40312195 333.34815979 C9.98301678 327.96786634 7.58047132 322.57990731 5.1875 317.1875 C4.69092896 316.06867432 4.69092896 316.06867432 4.18432617 314.92724609 C3.45579876 313.2850164 2.72782034 311.64254318 2 310 C1.67 310 1.34 310 1 310 Z " fill="#000000" transform="translate(187,16)"/>
<path d="M0 0 C4.83787853 0.28993467 8.2427075 1.98644083 12.39453125 4.38671875 C12.98618576 4.72621048 13.57784027 5.06570221 14.18742371 5.41548157 C15.43447587 6.1332934 16.67901854 6.85548084 17.92114258 7.58178711 C19.79171813 8.67535064 21.66935112 9.7558061 23.54882812 10.83398438 C41.31786633 21.07760672 55.21995643 30.93736384 61.75 51.34375 C63.85242409 59.63664502 64.29323602 68.35054376 60 76 C56.7648781 79.81578481 53.77773531 82.58741755 48.73828125 83.3359375 C47.53751953 83.35527344 47.53751953 83.35527344 46.3125 83.375 C45.52488281 83.40335937 44.73726562 83.43171875 43.92578125 83.4609375 C36.55880583 82.30031921 29.79813934 77.9358827 23.375 74.3125 C22.22354492 73.6632959 22.22354492 73.6632959 21.04882812 73.00097656 C19.47225548 72.10871183 17.89705141 71.21402449 16.32324219 70.31689453 C14.08169055 69.04630505 11.82729411 67.8015031 9.5703125 66.55859375 C8.21277088 65.79042308 6.85596201 65.02095555 5.5 64.25 C4.8714209 63.91009033 4.2428418 63.57018066 3.59521484 63.2199707 C0.89672042 61.65330925 -0.78765544 60.43280869 -2.17480469 57.60546875 C-3.36359174 52.41138377 -3.17192681 47.41683806 -3.046875 42.109375 C-3.02659241 40.9684137 -3.00630981 39.82745239 -2.9854126 38.6519165 C-2.9399467 36.24798416 -2.88919433 33.84414672 -2.83349609 31.44042969 C-2.74998815 27.7494761 -2.68831843 24.05859899 -2.62890625 20.3671875 C-2.58203406 18.03122345 -2.53390089 15.69528429 -2.484375 13.359375 C-2.46654968 12.25108337 -2.44872437 11.14279175 -2.43035889 10.00091553 C-2.40403381 8.97935364 -2.37770874 7.95779175 -2.35058594 6.90527344 C-2.33122986 6.00403748 -2.31187378 5.10280151 -2.29193115 4.17425537 C-2 2 -2 2 0 0 Z M7 13 C3.52174334 35.90227054 3.52174334 35.90227054 9.17822266 57.21923828 C14.6804078 61.99050585 21.00813831 64.56826361 27.85766602 66.85546875 C32.06823415 68.38908256 35.8011855 70.52915911 39.65527344 72.7956543 C42.97299754 74.4997706 45.36124728 74.7426026 49 74 C51.36085129 72.26042536 52.59762093 70.9388845 53.75 68.25 C55.07639698 56.3124272 51.25347911 46.44765655 44 37 C43.40574219 36.17757812 42.81148437 35.35515625 42.19921875 34.5078125 C39.65518719 31.60680315 37.08379736 29.85658147 33.8125 27.8125 C33.2153418 27.43810791 32.61818359 27.06371582 32.00292969 26.67797852 C30.01028968 25.4378129 28.00717317 24.21649679 26 23 C25.24702637 22.54270508 24.49405273 22.08541016 23.71826172 21.61425781 C21.40065474 20.21318315 19.07718307 18.82260406 16.75 17.4375 C16.01112549 16.99575439 15.27225098 16.55400879 14.51098633 16.09887695 C10.9939644 13.81069909 10.9939644 13.81069909 7 13 Z " fill="#000000" transform="translate(182,171)"/>
</svg>
