<?xml version="1.0" encoding="UTF-8"?>
<svg version="1.1" xmlns="http://www.w3.org/2000/svg" width="512" height="512">
<path d="M0 0 C3.00718122 1.22106806 5.69978186 2.58520639 8.49853516 4.22387695 C9.51931152 4.81740967 10.54008789 5.41094238 11.59179688 6.02246094 C12.67992676 6.66256104 13.76805664 7.30266113 14.88916016 7.9621582 C16.62424651 8.9744355 18.35933935 9.98670188 20.09481812 10.99830627 C21.29302081 11.69714698 22.4907904 12.39673078 23.68814087 13.09703064 C27.84839763 15.52920923 32.02393271 17.93316496 36.20947266 20.3215332 C37.92118652 21.30053589 37.92118652 21.30053589 39.66748047 22.29931641 C41.82933491 23.53495469 43.99264709 24.7680476 46.15771484 25.99804688 C76.55774427 43.43479582 97.33466104 67.22134623 106.97387695 101.30908203 C111.1515098 117.47404818 111.11759929 134.53920362 103.45166016 149.5871582 C98.08748144 155.82120374 92.255804 160.27378737 85.13916016 164.2746582 C89.43683441 174.9233215 93.94471635 185.43985936 98.76489258 195.86224365 C100.14984229 198.85927414 101.52459531 201.86094929 102.90020752 204.86227417 C105.30945097 210.11811753 107.72308002 215.37193582 110.14208984 220.62329102 C111.69588805 223.99849331 113.24010487 227.37792883 114.77752686 230.76062012 C115.34733041 232.00985295 115.92056101 233.25752888 116.49737549 234.50354004 C117.29287984 236.2227448 118.07570574 237.94779908 118.85791016 239.6730957 C119.30070313 240.63908691 119.74349609 241.60507812 120.19970703 242.6003418 C121.18761182 245.41258428 121.56032295 247.3240005 121.13916016 250.2746582 C118.76421793 252.06373935 116.6183017 253.39529688 114.01416016 254.7746582 C112.46367644 255.63352429 110.91425154 256.49430379 109.36572266 257.35668945 C108.5281543 257.81769043 107.69058594 258.27869141 106.82763672 258.75366211 C103.93838437 260.3882464 101.11288606 262.10619742 98.28759766 263.84887695 C96.81830811 264.74799805 96.81830811 264.74799805 95.31933594 265.6652832 C93.38747476 266.84996061 91.46119144 268.04378921 89.54101562 269.24731445 C88.65043457 269.78614258 87.75985352 270.3249707 86.84228516 270.88012695 C86.05499023 271.36634521 85.26769531 271.85256348 84.45654297 272.35351562 C81.49232563 273.53177016 80.15322982 273.26173209 77.13916016 272.2746582 C75.27940946 271.35778269 73.45675756 270.36372696 71.66650391 269.31762695 C70.61164795 268.70709473 69.55679199 268.0965625 68.4699707 267.4675293 C66.16754831 266.10684885 63.86810897 264.74209811 61.57202148 263.37084961 C60.39154499 262.66776114 59.21079902 261.9651249 58.02978516 261.26293945 C57.44371994 260.91352295 56.85765472 260.56410645 56.25382996 260.20410156 C52.72670409 258.1271224 49.16962957 256.30332545 45.43603516 254.63012695 C29.54851524 247.14744513 24.7633001 234.42839288 19.01513672 218.74633789 C18.72606445 217.93068359 18.43699219 217.1150293 18.13916016 216.2746582 C13.35454227 216.2746582 9.73526584 219.55531522 5.85205078 222.16333008 C5.20816406 222.57260742 4.56427734 222.98188477 3.90087891 223.40356445 C3.03402466 223.97699585 3.03402466 223.97699585 2.1496582 224.56201172 C-1.69582869 225.92509323 -4.97668679 224.69452813 -8.53881836 223.00292969 C-9.87577759 222.20737671 -9.87577759 222.20737671 -11.23974609 221.39575195 C-12.24457031 220.80342773 -13.24939453 220.21110352 -14.28466797 219.60083008 C-15.32042969 218.97756836 -16.35619141 218.35430664 -17.42333984 217.7121582 C-18.43203125 217.1159668 -19.44072266 216.51977539 -20.47998047 215.90551758 C-22.49092459 214.71275797 -24.4896584 213.49910713 -26.47398949 212.26257896 C-29.79838549 210.2266845 -29.79838549 210.2266845 -33.26375771 208.7589817 C-37.17893334 206.85974895 -39.73115483 205.31915934 -42.86083984 202.2746582 C-44.79082944 196.54090408 -44.60347306 191.02549617 -44.47949219 185.0300293 C-44.49056976 183.27501722 -44.50723774 181.52003291 -44.52905273 179.76512146 C-44.5711278 175.01396121 -44.53189876 170.26667187 -44.47534513 165.51578856 C-44.42743851 160.53912975 -44.44634277 155.56266467 -44.45571899 150.58584595 C-44.46106449 142.23115232 -44.41443679 133.8779832 -44.3359375 125.52368164 C-44.24576659 115.86860526 -44.23356254 106.21585354 -44.26401174 96.56045663 C-44.29188442 87.26432639 -44.26873753 77.96902108 -44.22093582 68.67299271 C-44.20125861 64.72002179 -44.19868728 60.76758736 -44.20975876 56.81458664 C-44.22019148 52.15968241 -44.18569635 47.50719787 -44.11662292 42.85281563 C-44.09834941 41.1461141 -44.09529311 39.4391709 -44.10864639 37.73242378 C-44.1952349 24.83441621 -44.1952349 24.83441621 -40.88527489 20.96544456 C-38.58821522 19.40630502 -36.42812061 18.31228166 -33.86083984 17.2746582 C-32.8332959 16.64672363 -31.80575195 16.01878906 -30.74707031 15.37182617 C-29.37639404 14.57736084 -29.37639404 14.57736084 -27.97802734 13.7668457 C-26.95580078 13.17258789 -25.93357422 12.57833008 -24.88037109 11.96606445 C-23.84267578 11.36665039 -22.80498047 10.76723633 -21.73583984 10.1496582 C-20.16769531 9.23893555 -20.16769531 9.23893555 -18.56787109 8.30981445 C-16.55595876 7.14234573 -14.54017944 5.98150763 -12.52001953 4.82836914 C-10.91222653 3.88896456 -9.32235041 2.91642049 -7.77197266 1.88500977 C-4.81503843 -0.05217998 -3.51406337 -0.89096111 0 0 Z " fill="#231F20" transform="translate(216.86083984375,119.725341796875)"/>
<path d="M0 0 C1.91780091 0.95190608 3.83480168 1.90542428 5.75146484 2.85961914 C6.81908051 3.39043594 7.88669617 3.92125275 8.98666382 4.46815491 C12.62643969 6.31845387 16.13317974 8.32523269 19.625 10.4375 C24.86663524 13.57386307 30.13321129 16.65500167 35.44921875 19.6640625 C36.58214355 20.30802979 37.71506836 20.95199707 38.88232422 21.61547852 C41.10564941 22.87747271 43.33234755 24.13355028 45.56298828 25.38256836 C71.90345201 40.38768106 92.36840681 63.53052022 101 93 C101.29648437 93.95390625 101.59296875 94.9078125 101.8984375 95.890625 C105.78670328 110.08814594 105.94163126 126.45808072 99.25 139.8125 C93.50210347 147.95535341 87.72175833 150.18016346 78 152 C78.56399746 156.18272507 79.52546114 159.63300565 81.265625 163.47265625 C81.73701904 164.52251709 82.20841309 165.57237793 82.6940918 166.65405273 C83.2075415 167.77884033 83.72099121 168.90362793 84.25 170.0625 C85.064018 171.86886817 85.87802932 173.67523938 86.69169617 175.48176575 C87.5461658 177.37596866 88.4038406 179.26869291 89.26220703 181.16113281 C90.97654028 184.94350294 92.67589497 188.73245949 94.37109375 192.5234375 C94.6465654 193.13927704 94.92203705 193.75511658 95.20585632 194.38961792 C95.75869439 195.62555741 96.31150521 196.86150908 96.86428833 198.09747314 C100.16463527 205.47434501 103.47131548 212.84818486 106.8203125 220.203125 C107.24481689 221.13777588 107.66932129 222.07242676 108.10668945 223.03540039 C108.88844238 224.75481364 109.67325019 226.47284251 110.46166992 228.18920898 C113 233.77715703 113 233.77715703 113 236 C108.97740914 234.50729642 105.35874764 232.60323329 101.6328125 230.48046875 C101.03499969 230.14002029 100.43718689 229.79957184 99.82125854 229.44880676 C98.56139913 228.7300915 97.30247257 228.00973881 96.04443359 227.2878418 C94.14061523 226.19645165 92.23267091 225.11255895 90.32421875 224.02929688 C89.09349227 223.32597163 87.86301542 222.62220936 86.6328125 221.91796875 C85.52824707 221.28656982 84.42368164 220.6551709 83.28564453 220.00463867 C82.20138184 219.34310791 81.11711914 218.68157715 80 218 C79.39451828 217.63714401 78.78903656 217.27428802 78.16520691 216.9004364 C73.57809827 213.93830047 71.30012477 210.70984061 69.16015625 205.68359375 C68.83584122 204.96644196 68.51152618 204.24929016 68.17738342 203.51040649 C67.12025179 201.16068382 66.09145281 198.79968056 65.0625 196.4375 C64.32907791 194.79340019 63.59386113 193.15009992 62.85693359 191.50756836 C60.93738123 187.21684547 59.04133538 182.91614357 57.15057373 178.6126709 C55.26092728 174.32174703 53.35078356 170.03998407 51.44140625 165.7578125 C49.31737206 160.99253835 47.19528943 156.22651066 45.09008789 151.45288086 C44.76962997 150.72708832 44.44917206 150.00129578 44.1190033 149.25350952 C43.52650435 147.91073377 42.93514446 146.56745449 42.3452301 145.22354126 C40.66835999 141.42543888 38.88451015 137.69931536 37 134 C36.34 134 35.68 134 35 134 C34.67 152.48 34.34 170.96 34 190 C30.9172783 188.76691132 28.2944783 187.70605138 25.46875 186.1171875 C24.82164062 185.75367188 24.17453125 185.39015625 23.5078125 185.015625 C22.51394531 184.45101562 22.51394531 184.45101562 21.5 183.875 C20.86835938 183.52179688 20.23671875 183.16859375 19.5859375 182.8046875 C18.24214363 182.0458392 16.91039306 181.26531333 15.59079266 180.46513367 C12.94021582 178.90950716 12.94021582 178.90950716 9.75952625 177.57209778 C0.72422971 173.1210469 0.72422971 173.1210469 -1.1811924 167.54064941 C-1.77143529 163.16429682 -1.6101212 158.7968097 -1.47583008 154.39453125 C-1.47215944 152.7086465 -1.47422869 151.02274099 -1.48158264 149.33686829 C-1.48530313 144.77573377 -1.40905838 140.21907111 -1.31812119 135.65897369 C-1.23667881 130.8879535 -1.22920451 126.11682289 -1.21379089 121.34521484 C-1.17343429 112.3169654 -1.06682887 103.29077003 -0.93624753 94.26342392 C-0.79078136 83.98319298 -0.71942533 73.70286225 -0.65420687 63.42185783 C-0.51843617 42.28009341 -0.28987898 21.14017624 0 0 Z " fill="#FDFDFD" transform="translate(179,148)"/>
<path d="M0 0 C4.7604733 0.80607419 8.71633632 3.42544809 12.875 5.75 C13.66519531 6.18054688 14.45539063 6.61109375 15.26953125 7.0546875 C21.94005948 10.76176975 27.45188597 14.3194971 31.3125 21.125 C31.80363281 21.97320312 32.29476562 22.82140625 32.80078125 23.6953125 C35.55881283 28.99576408 35.48859994 34.14537262 35 40 C33.39701349 43.74030185 32.40262302 44.73158465 29 47 C24.4190319 47.45684304 21.65605304 46.67004357 17.671875 44.4453125 C16.70765625 43.91292969 15.7434375 43.38054687 14.75 42.83203125 C13.76 42.26871094 12.77 41.70539063 11.75 41.125 C10.74453125 40.56941406 9.7390625 40.01382813 8.703125 39.44140625 C1.32708017 35.32708017 1.32708017 35.32708017 -1 33 C-1.18713986 30.57432881 -1.25585278 28.26502333 -1.23046875 25.83984375 C-1.23001053 25.13477188 -1.22955231 24.42970001 -1.2290802 23.70326233 C-1.22605863 22.21288368 -1.2181751 20.72250816 -1.20581055 19.23217773 C-1.18754456 16.94308367 -1.18530091 14.65439373 -1.18554688 12.36523438 C-1.18063206 10.91926731 -1.1748039 9.47330301 -1.16796875 8.02734375 C-1.16685593 7.33881821 -1.1657431 6.65029266 -1.16459656 5.94090271 C-1.11605499 1.11605499 -1.11605499 1.11605499 0 0 Z " fill="#252122" transform="translate(214,208)"/>
</svg>
