<?xml version="1.0" encoding="UTF-8"?>
<svg version="1.1" xmlns="http://www.w3.org/2000/svg" width="24" height="24">
<path d="M0 0 C7.92 0 15.84 0 24 0 C24 7.92 24 15.84 24 24 C16.08 24 8.16 24 0 24 C0 16.08 0 8.16 0 0 Z " fill="#040205" transform="translate(0,0)"/>
<path d="M0 0 C1.1446875 0.556875 1.1446875 0.556875 2.3125 1.125 C3.6428125 1.558125 3.6428125 1.558125 5 2 C5.99 1.34 6.98 0.68 8 0 C8 3.33333333 8 6.66666667 8 10 C7.236875 9.62875 6.47375 9.2575 5.6875 8.875 C4.800625 8.58625 3.91375 8.2975 3 8 C2.01 8.66 1.02 9.32 0 10 C0 6.66666667 0 3.33333333 0 0 Z " fill="#FFFFFF" transform="translate(8,7)"/>
</svg>
