<?xml version="1.0" encoding="UTF-8"?>
<svg version="1.1" xmlns="http://www.w3.org/2000/svg" width="50" height="50">
<path d="M0 0 C2.93230193 1.32120828 4.98664899 2.74638197 7.234375 5.0390625 C8.09482422 5.90917969 8.09482422 5.90917969 8.97265625 6.796875 C9.55917969 7.40015625 10.14570313 8.0034375 10.75 8.625 C11.35199219 9.23601563 11.95398438 9.84703125 12.57421875 10.4765625 C14.05405305 11.97988624 15.52764676 13.48934856 17 15 C19.93230193 13.67879172 21.98664899 12.25361803 24.234375 9.9609375 C24.80800781 9.38085938 25.38164063 8.80078125 25.97265625 8.203125 C26.55917969 7.59984375 27.14570312 6.9965625 27.75 6.375 C28.35199219 5.76398437 28.95398438 5.15296875 29.57421875 4.5234375 C31.05405305 3.02011376 32.52764676 1.51065144 34 0 C34.99 0.33 35.98 0.66 37 1 C35.67879172 3.93230193 34.25361803 5.98664899 31.9609375 8.234375 C31.09082031 9.09482422 31.09082031 9.09482422 30.203125 9.97265625 C29.59984375 10.55917969 28.9965625 11.14570313 28.375 11.75 C27.76398437 12.35199219 27.15296875 12.95398438 26.5234375 13.57421875 C25.02011376 15.05405305 23.51065144 16.52764676 22 18 C23.32120828 20.93230193 24.74638197 22.98664899 27.0390625 25.234375 C27.61914062 25.80800781 28.19921875 26.38164063 28.796875 26.97265625 C29.40015625 27.55917969 30.0034375 28.14570312 30.625 28.75 C31.23601563 29.35199219 31.84703125 29.95398438 32.4765625 30.57421875 C33.97988624 32.05405305 35.48934856 33.52764676 37 35 C36.67 35.99 36.34 36.98 36 38 C33.06769807 36.67879172 31.01335101 35.25361803 28.765625 32.9609375 C28.19199219 32.38085938 27.61835937 31.80078125 27.02734375 31.203125 C26.44082031 30.59984375 25.85429688 29.9965625 25.25 29.375 C24.64800781 28.76398437 24.04601562 28.15296875 23.42578125 27.5234375 C21.94594695 26.02011376 20.47235324 24.51065144 19 23 C16.06769807 24.32120828 14.01335101 25.74638197 11.765625 28.0390625 C11.19199219 28.61914062 10.61835938 29.19921875 10.02734375 29.796875 C9.44082031 30.40015625 8.85429687 31.0034375 8.25 31.625 C7.34701172 32.54152344 7.34701172 32.54152344 6.42578125 33.4765625 C4.94594695 34.97988624 3.47235324 36.48934856 2 38 C1.01 37.67 0.02 37.34 -1 37 C0.32120828 34.06769807 1.74638197 32.01335101 4.0390625 29.765625 C4.61914062 29.19199219 5.19921875 28.61835937 5.796875 28.02734375 C6.40015625 27.44082031 7.0034375 26.85429688 7.625 26.25 C8.23601563 25.64800781 8.84703125 25.04601562 9.4765625 24.42578125 C10.97988624 22.94594695 12.48934856 21.47235324 14 20 C12.67879172 17.06769807 11.25361803 15.01335101 8.9609375 12.765625 C8.38085938 12.19199219 7.80078125 11.61835938 7.203125 11.02734375 C6.59984375 10.44082031 5.9965625 9.85429687 5.375 9.25 C4.76398437 8.64800781 4.15296875 8.04601562 3.5234375 7.42578125 C2.02011376 5.94594695 0.51065144 4.47235324 -1 3 C-0.67 2.01 -0.34 1.02 0 0 Z " fill="#000000" transform="translate(7,6)"/>
</svg>
