<?xml version="1.0" encoding="UTF-8"?>
<svg version="1.1" xmlns="http://www.w3.org/2000/svg" width="32" height="32">
<path d="M0 0 C2.66666667 1.33333333 5.33333333 2.66666667 8 4 C8.928125 3.01 8.928125 3.01 9.875 2 C12 0 12 0 14 0 C13.40072174 3.35595828 12.15377564 5.37801226 10 8 C10.66 8.598125 11.32 9.19625 12 9.8125 C14 12 14 12 14 15 C11.33333333 13.66666667 8.66666667 12.33333333 6 11 C5.071875 11.99 5.071875 11.99 4.125 13 C2 15 2 15 0 15 C0.59927826 11.64404172 1.84622436 9.62198774 4 7 C3.34 6.401875 2.68 5.80375 2 5.1875 C0 3 0 3 0 0 Z " fill="#000000" transform="translate(8,9)"/>
</svg>
