<?xml version="1.0" encoding="UTF-8"?>
<svg version="1.1" xmlns="http://www.w3.org/2000/svg" width="36" height="36">
<path d="M0 0 C2.78125 0.9921875 2.78125 0.9921875 5.15625 3.5546875 C6.76775997 12.41799236 4.62210623 21.39823767 -0.21875 28.9921875 C-4.11175875 32.06868505 -8.00804356 32.82519351 -12.84375 33.4921875 C-18.2367931 32.69321815 -21.80223288 30.88087699 -25.09375 26.4921875 C-27.6140062 18.65139045 -28.07781676 10.75251157 -25.21875 2.9921875 C-19.0677331 -6.04211857 -9.44163393 -2.3162887 0 0 Z " fill="#EAEAEA" transform="translate(28.21875,3.0078125)"/>
<path d="M0 0 C3 1 3 1 5 3 C5.99 3.33 6.98 3.66 8 4 C8 4.66 8 5.32 8 6 C9.65 5.67 11.3 5.34 13 5 C13.33776684 6.7491497 13.67003671 8.49936145 14 10.25 C14.185625 11.22453125 14.37125 12.1990625 14.5625 13.203125 C15 16 15 16 15 20 C8.91176471 24.01823529 8.91176471 24.01823529 4.875 23.9375 C1.91698085 22.97292854 -0.36737841 21.63541645 -3 20 C-2.69140975 17.22867983 -2.3782967 14.45800014 -2.0625 11.6875 C-1.97548828 10.90181641 -1.88847656 10.11613281 -1.79882812 9.30664062 C-1.71181641 8.54931641 -1.62480469 7.79199219 -1.53515625 7.01171875 C-1.41732788 5.96697388 -1.41732788 5.96697388 -1.29711914 4.90112305 C-1 3 -1 3 0 0 Z " fill="#232725" transform="translate(12,6)"/>
<path d="M0 0 C0.33 3.96 0.66 7.92 1 12 C-4 15 -4 15 -7.125 14.875 C-10.08711004 13.97348825 -10.97974736 13.21151916 -13 11 C-11.21427748 9.16052663 -9.42197551 7.32842259 -7.625 5.5 C-7.11710937 4.97535156 -6.60921875 4.45070313 -6.0859375 3.91015625 C-2.2265625 0 -2.2265625 0 0 0 Z " fill="#EEEEEC" transform="translate(24,13)"/>
<path d="M0 0 C1 2 1 2 1 4 C2.32 2.68 3.64 1.36 5 0 C5.66 0.33 6.32 0.66 7 1 C3.7 4.3 0.4 7.6 -3 11 C-2.67 11.99 -2.34 12.98 -2 14 C-3.32 13.67 -4.64 13.34 -6 13 C-5.67 10.69 -5.34 8.38 -5 6 C-4.34 6 -3.68 6 -3 6 C-2.01 4.02 -1.02 2.04 0 0 Z " fill="#08140E" transform="translate(15,13)"/>
<path d="M0 0 C0 3 0 3 -1.609375 4.71875 C-2.31578125 5.3065625 -3.0221875 5.894375 -3.75 6.5 C-4.44609375 7.0878125 -5.1421875 7.675625 -5.859375 8.28125 C-7.87526805 9.89985026 -9.9207289 11.46396189 -12 13 C-12 10 -12 10 -9.8828125 7.51953125 C-8.97273437 6.62621094 -8.06265625 5.73289062 -7.125 4.8125 C-6.22007813 3.91144531 -5.31515625 3.01039062 -4.3828125 2.08203125 C-2 0 -2 0 0 0 Z " fill="#C9CCCD" transform="translate(24,13)"/>
<path d="M0 0 C0.99 0.66 1.98 1.32 3 2 C2.49287967 5.71888239 1.88391785 8.73454239 0 12 C-0.66 11.67 -1.32 11.34 -2 11 C-1.85957123 9.35369672 -1.71250671 7.70795821 -1.5625 6.0625 C-1.48128906 5.14597656 -1.40007813 4.22945312 -1.31640625 3.28515625 C-1 1 -1 1 0 0 Z " fill="#146342" transform="translate(12,8)"/>
<path d="M0 0 C0.66 0 1.32 0 2 0 C2.33 0.99 2.66 1.98 3 3 C0.03 5.475 0.03 5.475 -3 8 C-1.125 2.25 -1.125 2.25 0 0 Z " fill="#27BC6F" transform="translate(17,11)"/>
</svg>
