<?xml version="1.0" encoding="UTF-8"?>
<svg version="1.1" xmlns="http://www.w3.org/2000/svg" width="72" height="72">
<path d="M0 0 C5.19534854 1.72686301 9.99953817 2.4397781 15.5 2.51757812 C19.75706886 3.07823344 23.42352161 5.47561038 26.05078125 8.85351562 C30.33616478 19.90695874 28.10556394 31.04076178 24.05078125 41.85351562 C22.55663341 44.9808018 20.89353518 47.92155027 19.05078125 50.85351562 C17.8968567 53.16136472 17.51640959 55.32581894 17.05078125 57.85351562 C15.78234375 58.19382812 15.78234375 58.19382812 14.48828125 58.54101562 C11.05944175 59.85020889 8.78177517 61.36389306 5.95703125 63.63476562 C-0.39697854 67.69716532 -7.6845757 67.66449223 -14.94921875 66.85351562 C-21.3651754 64.96646955 -25.99111803 61.72486203 -29.703125 56.16210938 C-36.93279576 42.76795445 -37.70796999 27.46006191 -33.94921875 12.85351562 C-31.54225845 6.33201564 -28.73715801 1.75408338 -22.94921875 -2.14648438 C-14.88709597 -4.83385863 -7.77359849 -2.65707745 0 0 Z " fill="#ECECED" transform="translate(38.94921875,4.146484375)"/>
<path d="M0 0 C1.875 0.125 1.875 0.125 4 1 C5.75 3.5625 5.75 3.5625 7 6 C8.65 5.67 10.3 5.34 12 5 C13.98 7.97 13.98 7.97 16 11 C16.5775 10.835 17.155 10.67 17.75 10.5 C20 10 20 10 24 10 C25.62809049 15.33217409 26.76247484 20.62953031 27.6875 26.125 C27.90116211 27.30255859 27.90116211 27.30255859 28.11914062 28.50390625 C29.51727617 36.75360155 29.51727617 36.75360155 28 40 C25.56295032 41.70296276 23.38331507 43.00576079 20.75 44.3125 C20.08097656 44.67150391 19.41195312 45.03050781 18.72265625 45.40039062 C12.0693066 48.83163676 12.0693066 48.83163676 8 48 C5.26943666 46.68988123 2.73940105 45.12637904 0.1875 43.5 C-0.50537109 43.07074219 -1.19824219 42.64148437 -1.91210938 42.19921875 C-3.61425793 41.14271275 -5.3079911 40.0726698 -7 39 C-2.57032641 2.57032641 -2.57032641 2.57032641 0 0 Z " fill="#0D110F" transform="translate(25,12)"/>
<path d="M0 0 C3.23238098 4.84857147 3.28481863 10.30503721 4 16 C4.27070312 17.29164062 4.27070312 17.29164062 4.546875 18.609375 C4.92216348 21.20065259 5.02038969 22.57363559 4 25 C-0.08663499 28.49372227 -4.9566956 32.15498309 -10.53125 31.87109375 C-13.48618117 30.8284519 -16.08598703 29.48142903 -18.8125 27.9375 C-19.78832031 27.38964844 -20.76414062 26.84179688 -21.76953125 26.27734375 C-22.50558594 25.85582031 -23.24164062 25.43429688 -24 25 C-19.18132753 19.19108254 -13.98743592 13.86934448 -8.625 8.5625 C-7.79355469 7.73556641 -6.96210937 6.90863281 -6.10546875 6.05664062 C-4.0725896 4.03544469 -2.03740037 2.01663665 0 0 Z " fill="#E9E9E8" transform="translate(46,25)"/>
<path d="M0 0 C0.99 0.33 1.98 0.66 3 1 C3.87109375 3.6015625 3.87109375 3.6015625 4 7 C2.38494888 9.5099483 0.27243954 11.3882619 -1.9375 13.375 C-2.51435547 13.92027344 -3.09121094 14.46554688 -3.68554688 15.02734375 C-5.10845158 16.36793165 -6.55229961 17.68622784 -8 19 C-8 15.91926653 -7.61175432 14.86670766 -6.25 12.20703125 C-5.70859375 11.1387207 -5.70859375 11.1387207 -5.15625 10.04882812 C-4.7746875 9.31083984 -4.393125 8.57285156 -4 7.8125 C-3.6184375 7.06291016 -3.236875 6.31332031 -2.84375 5.54101562 C-1.90120191 3.69126501 -0.95129907 1.84526538 0 0 Z " fill="#2ACB78" transform="translate(35,22)"/>
<path d="M0 0 C0.66 0 1.32 0 2 0 C3.94040751 2.51534307 5.09427915 4.05070646 4.7734375 7.28125 C3.84942373 10.5292984 2.48654546 13.31328432 0.9375 16.3125 C0.38964844 17.38113281 -0.15820312 18.44976562 -0.72265625 19.55078125 C-1.14417969 20.35902344 -1.56570312 21.16726562 -2 22 C-2.33 22 -2.66 22 -3 22 C-2.24984418 14.62346781 -1.16558465 7.32168224 0 0 Z " fill="#00A163" transform="translate(26,17)"/>
<path d="M0 0 C1.67542976 0.28604898 3.34385343 0.61781233 5 1 C4.67 2.65 4.34 4.3 4 6 C2.0625 6.5625 2.0625 6.5625 0 7 C-1 6 -1 6 -1.125 3.5 C-1 1 -1 1 0 0 Z " fill="#ACB6C5" transform="translate(52,56)"/>
<path d="M0 0 C2 1 2 1 3 3 C-0.465 4.485 -0.465 4.485 -4 6 C-2.25 1.125 -2.25 1.125 0 0 Z " fill="#191919" transform="translate(45,52)"/>
<path d="M0 0 C0.66 0.33 1.32 0.66 2 1 C1.50168276 4.68754757 0.89932357 6.60490662 -2 9 C-1.125 1.125 -1.125 1.125 0 0 Z " fill="#23CA78" transform="translate(29,21)"/>
<path d="M0 0 C0 1.98 0 3.96 0 6 C-0.99 6.33 -1.98 6.66 -3 7 C-3 5.02 -3 3.04 -3 1 C-1 0 -1 0 0 0 Z " fill="#191919" transform="translate(25,21)"/>
</svg>
