<?xml version="1.0" encoding="UTF-8"?>
<svg version="1.1" xmlns="http://www.w3.org/2000/svg" width="96" height="96">
<path d="M0 0 C8.80288754 6.34043826 15.4186507 14.72648904 17.58203125 25.4921875 C18.92007691 37.90936834 17.85729499 48.88109459 10.39453125 59.2421875 C3.58210875 67.3274193 -4.72289951 73.55522767 -15.48876953 74.71533203 C-28.40007937 75.61089799 -39.16843729 74.04490094 -49.3515625 65.46484375 C-57.86959925 57.33325857 -62.42046403 48.68416257 -62.88867188 36.85693359 C-63.04371176 24.34263074 -60.22647828 14.71931927 -51.41796875 5.4921875 C-37.63784493 -7.66275112 -16.31305228 -10.17259803 0 0 Z " fill="#0CBED5" transform="translate(70.41796875,13.5078125)"/>
<path d="M0 0 C2.92293498 0.40785139 5.80322347 0.96155596 8.69921875 1.52734375 C12.51974768 2.07442541 16.27444218 2.18392805 20.125 2.1875 C20.82753906 2.19974609 21.53007813 2.21199219 22.25390625 2.22460938 C26.14786514 2.23565085 28.58515429 1.73673484 32 0 C34.75 0.375 34.75 0.375 37 1 C36.98839844 1.78246094 36.97679687 2.56492187 36.96484375 3.37109375 C36.95582031 4.38300781 36.94679687 5.39492188 36.9375 6.4375 C36.92589844 7.44683594 36.91429687 8.45617187 36.90234375 9.49609375 C36.71387324 11.94021067 36.71387324 11.94021067 38 13 C38.42472334 17.86798291 38.64469503 22.45273192 36.75 27 C33.3807241 30.85060102 29.59469514 32.80707732 25 35 C25.66 35.804375 26.32 36.60875 27 37.4375 C29.72209596 41.43438034 29.37338272 45.33271604 29 50 C27.02 50.495 27.02 50.495 25 51 C25 48.03 25 45.06 25 42 C24.34 42 23.68 42 23 42 C23 45.3 23 48.6 23 52 C21.68 52 20.36 52 19 52 C19 48.04 19 44.08 19 40 C18.34 40 17.68 40 17 40 C17 43.96 17 47.92 17 52 C15.68 52 14.36 52 13 52 C13 48.7 13 45.4 13 42 C12.34 42 11.68 42 11 42 C11 44.97 11 47.94 11 51 C9.68 51 8.36 51 7 51 C7 48.69 7 46.38 7 44 C6.10023437 44.09023437 5.20046875 44.18046875 4.2734375 44.2734375 C1 44 1 44 -1.3359375 42.1015625 C-2.00882813 41.28429687 -2.68171875 40.46703125 -3.375 39.625 C-4.06335938 38.81289062 -4.75171875 38.00078125 -5.4609375 37.1640625 C-7 35 -7 35 -7 33 C-3.98901788 34.00366071 -2.22683855 34.75120933 -0.0625 37.125 C1.92418412 39.27303313 1.92418412 39.27303313 5.0625 39.5 C8.10961284 39.29942617 8.10961284 39.29942617 9.75 37 C10.1625 36.34 10.575 35.68 11 35 C11.66 35 12.32 35 13 35 C13 34.34 13 33.68 13 33 C12.13375 33.0825 11.2675 33.165 10.375 33.25 C5.2984687 32.87396064 2.43936133 30.63127617 -0.875 26.875 C-2.71041296 22.18450022 -2.73517298 16.87385803 -1.484375 11.984375 C-0.92396423 9.68849863 -0.93762147 7.67118813 -1 5.3125 C-1.03763031 3.87549262 -1.04662859 2.43674355 -1 1 C-0.67 0.67 -0.34 0.34 0 0 Z " fill="#485D66" transform="translate(31,28)"/>
<path d="M0 0 C6.31402599 4.4892277 11.8946353 11.71801442 13.3125 19.4375 C14.20796826 29.86804696 12.21054573 38.78932224 6.1328125 47.38671875 C3.07048143 50.83676985 -0.5880709 53.34679116 -4.6875 55.4375 C-5.3475 55.4375 -6.0075 55.4375 -6.6875 55.4375 C-6.79707031 54.77363281 -6.90664063 54.10976562 -7.01953125 53.42578125 C-7.89886023 48.52870522 -8.68201714 44.53588572 -11.6875 40.4375 C-11.00042969 40.13457031 -10.31335937 39.83164062 -9.60546875 39.51953125 C-4.17990441 37.01478244 -4.17990441 37.01478244 0.4375 33.3125 C2.09247585 27.87472222 2.11018686 21.83056059 0.3125 16.4375 C0.24509135 14.87631572 0.22735544 13.3124748 0.25 11.75 C0.25902344 10.94175781 0.26804688 10.13351563 0.27734375 9.30078125 C0.28894531 8.68589844 0.30054688 8.07101563 0.3125 7.4375 C-3.81723628 8.00489868 -3.81723628 8.00489868 -7.6875 9.4375 C-10.95271879 9.67661448 -14.22698929 9.62269344 -17.5 9.625 C-18.85448242 9.64336914 -18.85448242 9.64336914 -20.23632812 9.66210938 C-24.89390183 9.67237589 -28.41982118 9.49411475 -32.6875 7.4375 C-33.6775 7.4375 -34.6675 7.4375 -35.6875 7.4375 C-35.66429687 8.18515625 -35.64109375 8.9328125 -35.6171875 9.703125 C-35.59011719 11.18039063 -35.59011719 11.18039063 -35.5625 12.6875 C-35.53929687 13.66203125 -35.51609375 14.6365625 -35.4921875 15.640625 C-35.69277497 18.51303759 -36.32305911 19.95669839 -37.6875 22.4375 C-38.07499213 24.76245277 -38.41732839 27.09601268 -38.6875 29.4375 C-44.6275 29.9325 -44.6275 29.9325 -50.6875 30.4375 C-51.2286633 19.74952479 -49.09365262 12.71055686 -42.45703125 4.29296875 C-30.73268137 -8.00077561 -14.13940119 -8.44536146 0 0 Z " fill="#F7FBFC" transform="translate(66.6875,21.5625)"/>
<path d="M0 0 C1.875 2.3125 1.875 2.3125 3 5 C6.53884503 7.67804488 9.62094986 8.49080812 14 9 C14 11 14 11 11.875 13.625 C9 16 9 16 6.125 16.6875 C2.22683373 15.82990342 0.36059239 14.12056437 -2.484375 11.41015625 C-3.96424068 9.90044362 -3.96424068 9.90044362 -6 9 C-4.81238834 10.66084778 -3.5989633 12.30325686 -2.375 13.9375 C-1.70210937 14.85402344 -1.02921875 15.77054688 -0.3359375 16.71484375 C2.44623563 19.43653486 4.18029444 19.7427992 8 20 C8 21.98 8 23.96 8 26 C1.99576099 25.1452665 -1.72874735 22.17366692 -6 18 C-9.90165402 12.71127148 -13 7.68600523 -13 1 C-9.06394992 -0.96802504 -4.28082372 -0.5947404 0 0 Z " fill="#F1F5F6" transform="translate(30,52)"/>
</svg>
