<?xml version="1.0" encoding="UTF-8"?>
<svg version="1.1" xmlns="http://www.w3.org/2000/svg" width="100" height="100">
<path d="M0 0 C1.29421875 -0.02900391 2.5884375 -0.05800781 3.921875 -0.08789062 C11.51422304 -0.13814547 17.29730909 0.40122128 23.875 4.3125 C25.009375 4.9725 26.14375 5.6325 27.3125 6.3125 C29.875 8.3125 29.875 8.3125 30.81640625 10.23828125 C32.02485138 12.60612023 33.33289061 13.81699036 35.375 15.5 C35.9834375 16.00917969 36.591875 16.51835937 37.21875 17.04296875 C38.85969533 18.38367638 38.85969533 18.38367638 40.875 19.3125 C40.99875 19.9725 41.1225 20.6325 41.25 21.3125 C42.14293896 25.59860702 44.02458376 29.36207649 45.875 33.3125 C46.535 33.3125 47.195 33.3125 47.875 33.3125 C47.875 44.8625 47.875 56.4125 47.875 68.3125 C47.215 68.3125 46.555 68.3125 45.875 68.3125 C45.545 70.6225 45.215 72.9325 44.875 75.3125 C43.39 75.8075 43.39 75.8075 41.875 76.3125 C38.88184316 79.57222297 36.36353288 83.06402709 34.75 87.1875 C33.62006131 89.93163681 32.53208221 90.14025785 29.875 91.3125 C29.2975 91.93125 28.72 92.55 28.125 93.1875 C19.71377801 101.13143188 8.81153965 100.49324174 -2.0625 100.5 C-3.09568359 100.51224609 -4.12886719 100.52449219 -5.19335938 100.53710938 C-15.39144764 100.5564851 -24.50385171 99.05993219 -33.125 93.3125 C-33.62 92.3225 -33.62 92.3225 -34.125 91.3125 C-35.61 90.8175 -35.61 90.8175 -37.125 90.3125 C-37.434375 89.673125 -37.74375 89.03375 -38.0625 88.375 C-38.95200866 86.14158985 -38.95200866 86.14158985 -41.1875 85.3125 C-42.1465625 84.8175 -42.1465625 84.8175 -43.125 84.3125 C-43.46842449 82.98173011 -43.7991265 81.64767615 -44.125 80.3125 C-45.56530411 77.29751938 -47.10980955 74.34660056 -48.65234375 71.3828125 C-51.95698262 64.49303492 -52.51096962 58.74313043 -52.5 51.1875 C-52.49983887 50.16156738 -52.49967773 49.13563477 -52.49951172 48.07861328 C-52.38396065 40.40967146 -51.37613153 34.31311168 -48.125 27.3125 C-47.03983971 24.65900586 -46.03188991 22.03316972 -45.125 19.3125 C-44.465 18.9825 -43.805 18.6525 -43.125 18.3125 C-42.815625 17.673125 -42.50625 17.03375 -42.1875 16.375 C-41.125 14.3125 -41.125 14.3125 -38.125 12.3125 C-37.465 11.3225 -36.805 10.3325 -36.125 9.3125 C-35.135 8.9825 -34.145 8.6525 -33.125 8.3125 C-32.795 7.6525 -32.465 6.9925 -32.125 6.3125 C-31.50625 6.168125 -30.8875 6.02375 -30.25 5.875 C-28.04494891 5.51067479 -28.04494891 5.51067479 -26.875 3.8125 C-24.43244161 1.71887853 -22.20270627 1.77322664 -19.0625 1.5234375 C-5.43585335 0.03989129 -5.43585335 0.03989129 0 0 Z " fill="#6EABB5" transform="translate(52.125,-0.3125)"/>
<path d="M0 0 C7.59025587 0.75902559 7.59025587 0.75902559 9.71240234 2.00708008 C14.37444801 4.03061687 19.78222237 3.33164334 24.78955078 3.31567383 C26.86154113 3.31252048 28.93209291 3.33596602 31.00390625 3.36132812 C32.32003906 3.36197266 33.63617188 3.36261719 34.9921875 3.36328125 C36.79212158 3.36775269 36.79212158 3.36775269 38.62841797 3.37231445 C42.35457105 2.9608457 44.72338332 1.75947219 48 0 C51.375 -0.1875 51.375 -0.1875 54 0 C54.02578125 0.9178125 54.0515625 1.835625 54.078125 2.78125 C54.26708253 10.81671558 54.26708253 10.81671558 57.0625 18.1875 C59.84475178 22.95707448 59.74960866 27.62270526 59 33 C57.27783711 39.25977184 54.58317105 43.48467008 49 47 C45.7 47.99 42.4 48.98 39 50 C39.33 58.91 39.66 67.82 40 77 C31.42 77 22.84 77 14 77 C14 73.37 14 69.74 14 66 C11.6796875 65.62875 11.6796875 65.62875 9.3125 65.25 C1.7743694 63.7020857 -1.38410235 59.79939006 -5.66796875 53.70703125 C-6.90649246 51.86757563 -6.90649246 51.86757563 -9 51 C-9 50.34 -9 49.68 -9 49 C-6.6568787 49.25561323 -4.32156597 49.59270772 -2 50 C-1.67 50.66 -1.34 51.32 -1 52 C2.48446028 55.33296201 5.5280466 57.33870705 10.4375 57.3125 C12.2009375 57.1578125 12.2009375 57.1578125 14 57 C14.66 54.69 15.32 52.38 16 50 C15.34773438 49.82984375 14.69546875 49.6596875 14.0234375 49.484375 C2.02454487 46.15724843 2.02454487 46.15724843 -1.21484375 41.10546875 C-4.24282199 35.2973539 -5.93063104 29.62462362 -5 23 C-4.140625 21.23046875 -4.140625 21.23046875 -3.0625 19.4375 C0.26244926 13.59827815 -0.17075505 6.55699378 0 0 Z " fill="#E2E2E3" transform="translate(23,21)"/>
<path d="M0 0 C1.87018023 3.15321086 2.13776187 5.18524374 1.875 8.8125 C1.78539284 12.41259957 1.98616283 14.58259259 3.9375 17.625 C6.46793699 21.76571508 6.69020794 24.19822315 7 29 C7.103125 29.825 7.20625 30.65 7.3125 31.5 C6.43858937 38.49128505 2.03646669 43.70036191 -2.90234375 48.4453125 C-5.80543422 50.59695125 -8.45215484 50.78712929 -12 51 C-14.34017648 54.51026472 -14.11918568 55.39066839 -13.625 59.4375 C-13.24411628 62.69272712 -13 65.70943834 -13 69 C-7.35149054 67.78169404 -5.05377058 66.26712693 -1 62 C-0.20980469 61.69320312 0.58039063 61.38640625 1.39453125 61.0703125 C8.74679341 58.05004289 12.99673603 51.00761594 16 44 C16.99 44 17.98 44 19 44 C20.03744553 37.92008667 20.04653705 32.11585914 19.87304688 25.96484375 C19.81444501 22.08333218 19.79218092 20.31172862 22 17 C22 26.57 22 36.14 22 46 C21.34 46 20.68 46 20 46 C19.67 48.31 19.34 50.62 19 53 C17.515 53.495 17.515 53.495 16 54 C13.00684316 57.25972297 10.48853288 60.75152709 8.875 64.875 C7.74506131 67.61913681 6.65708221 67.82775785 4 69 C3.4225 69.61875 2.845 70.2375 2.25 70.875 C-6.16122199 78.81893188 -17.06346035 78.18074174 -27.9375 78.1875 C-28.97068359 78.19974609 -30.00386719 78.21199219 -31.06835938 78.22460938 C-41.26644764 78.2439851 -50.37885171 76.74743219 -59 71 C-59.33 70.34 -59.66 69.68 -60 69 C-60.99 68.67 -61.98 68.34 -63 68 C-64.0625 66.125 -64.0625 66.125 -65 64 C-65.66 63.01 -66.32 62.02 -67 61 C-61.36889693 61.62567812 -61.36889693 61.62567812 -59.671875 63.34765625 C-57.40490539 65.58814257 -54.91618589 66.72108531 -52.0625 68.125 C-51.02222656 68.64320312 -49.98195313 69.16140625 -48.91015625 69.6953125 C-46.56496309 70.74671454 -44.50645938 71.50474778 -42 72 C-42.63921965 69.52372901 -42.63921965 69.52372901 -44 67 C-46.52372901 65.63921965 -46.52372901 65.63921965 -49 65 C-49 64.67 -49 64.34 -49 64 C-42.84765625 63.90234375 -42.84765625 63.90234375 -41 64 C-40 65 -40 65 -39.8671875 66.99609375 C-39.86976562 67.80175781 -39.87234375 68.60742188 -39.875 69.4375 C-39.87113281 70.64212891 -39.87113281 70.64212891 -39.8671875 71.87109375 C-40 74 -40 74 -41 76 C-32.42 76 -23.84 76 -15 76 C-15.33 74.68 -15.66 73.36 -16 72 C-16.14442951 70.19540394 -16.24605629 68.38712409 -16.31640625 66.578125 C-16.35830078 65.55332031 -16.40019531 64.52851562 -16.44335938 63.47265625 C-16.48267578 62.40917969 -16.52199219 61.34570312 -16.5625 60.25 C-16.60568359 59.17105469 -16.64886719 58.09210938 -16.69335938 56.98046875 C-16.79928989 54.32043572 -16.90136421 51.66031188 -17 49 C-16.38946777 48.80591553 -15.77893555 48.61183105 -15.14990234 48.41186523 C-14.34504395 48.15091064 -13.54018555 47.88995605 -12.7109375 47.62109375 C-11.91478027 47.36513428 -11.11862305 47.1091748 -10.29833984 46.84545898 C-4.22184152 44.61018028 -0.48907393 41.21326479 2.1875 35.4375 C3.66722552 29.17712281 4.40615091 22.79006308 0.9375 17.125 C-2.24433349 11.78845121 -0.82665794 5.8944305 0 0 Z " fill="#2B636D" transform="translate(78,22)"/>
<path d="M0 0 C5.63110307 0.62567812 5.63110307 0.62567812 7.328125 2.34765625 C9.59509461 4.58814257 12.08381411 5.72108531 14.9375 7.125 C16.49791016 7.90230469 16.49791016 7.90230469 18.08984375 8.6953125 C20.43503691 9.74671454 22.49354062 10.50474778 25 11 C24.36078035 8.52372901 24.36078035 8.52372901 23 6 C20.47627099 4.63921965 20.47627099 4.63921965 18 4 C18 3.67 18 3.34 18 3 C24.15234375 2.90234375 24.15234375 2.90234375 26 3 C27 4 27 4 27.1328125 5.99609375 C27.13023438 6.80175781 27.12765625 7.60742188 27.125 8.4375 C27.12886719 9.64212891 27.12886719 9.64212891 27.1328125 10.87109375 C27 13 27 13 26 15 C34.58 15 43.16 15 52 15 C52.33 14.34 52.66 13.68 53 13 C53.99 14.32 54.98 15.64 56 17 C52.03478915 17.0499542 48.06970369 17.08597787 44.10424805 17.10986328 C42.10263623 17.12470245 40.10111188 17.15013361 38.09960938 17.17578125 C27.08575669 17.23126665 17.37568746 16.25045831 8 10 C7.67 9.34 7.34 8.68 7 8 C6.01 7.67 5.02 7.34 4 7 C2.9375 5.125 2.9375 5.125 2 3 C1.34 2.01 0.68 1.02 0 0 Z " fill="#657D7F" transform="translate(11,83)"/>
<path d="M0 0 C1.87018023 3.15321086 2.13776187 5.18524374 1.875 8.8125 C1.78539284 12.41259957 1.98616283 14.58259259 3.9375 17.625 C6.46793699 21.76571508 6.69020794 24.19822315 7 29 C7.103125 29.825 7.20625 30.65 7.3125 31.5 C6.43858937 38.49128505 2.03646669 43.70036191 -2.90234375 48.4453125 C-5.80543422 50.59695125 -8.45215484 50.78712929 -12 51 C-14.0140956 54.0211434 -14.26836596 54.80660017 -14.4140625 58.23046875 C-14.47207031 59.43413086 -14.47207031 59.43413086 -14.53125 60.66210938 C-14.5621875 61.49548828 -14.593125 62.32886719 -14.625 63.1875 C-14.68300781 64.4549707 -14.68300781 64.4549707 -14.7421875 65.74804688 C-14.83636279 67.83167524 -14.91926675 69.91580753 -15 72 C-15.33 72 -15.66 72 -16 72 C-16.33 64.41 -16.66 56.82 -17 49 C-14.03 48.01 -11.06 47.02 -8 46 C-3.02351172 43.1431271 -0.21246247 40.61636639 2.1875 35.4375 C3.66722552 29.17712281 4.40615091 22.79006308 0.9375 17.125 C-2.24433349 11.78845121 -0.82665794 5.8944305 0 0 Z " fill="#3F747C" transform="translate(78,22)"/>
<path d="M0 0 C0 0.99 0 1.98 0 3 C-1 4 -2 5 -3 6 C-3.144375 6.680625 -3.28875 7.36125 -3.4375 8.0625 C-4 10 -4 10 -5.8125 11 C-6.8953125 11.495 -6.8953125 11.495 -8 12 C-8.5775 12.61875 -9.155 13.2375 -9.75 13.875 C-12.80508036 16.76035367 -16.01632081 18.64661954 -20 20 C-23.4375 19.875 -23.4375 19.875 -26 19 C-27.35439668 16.29120665 -27.06501451 13.99066732 -27 11 C-26.67 11.99 -26.34 12.98 -26 14 C-22.53058454 13.54177532 -19.32604951 13.10868317 -16 12 C-16 11.34 -16 10.68 -16 10 C-15.49210937 9.75765625 -14.98421875 9.5153125 -14.4609375 9.265625 C-9.239092 6.72315341 -4.14789186 4.14789186 0 0 Z " fill="#1D454D" transform="translate(90,79)"/>
<path d="M0 0 C1.87018023 3.15321086 2.13776187 5.18524374 1.875 8.8125 C1.78539284 12.41259957 1.98616283 14.58259259 3.9375 17.625 C6.46793699 21.76571508 6.69020794 24.19822315 7 29 C7.103125 29.825 7.20625 30.65 7.3125 31.5 C6.82406162 35.40750703 4.89565473 38.58951404 3 42 C1.9453125 40.16015625 1.9453125 40.16015625 1 38 C1.28875 37.154375 1.5775 36.30875 1.875 35.4375 C3.56992147 30.25857328 4.41267904 24.07361129 2.06640625 18.96875 C1.50759766 18.05609375 1.50759766 18.05609375 0.9375 17.125 C-2.24433349 11.78845121 -0.82665794 5.8944305 0 0 Z " fill="#3B7983" transform="translate(78,22)"/>
<path d="M0 0 C0.33 0 0.66 0 1 0 C1.5057109 7.51542581 1.16020985 13.55167473 -3 20 C-7.08283335 24.47167462 -11.10913932 25.91180259 -16.828125 27.32421875 C-19.18205669 27.87199291 -19.18205669 27.87199291 -21 30 C-20.796875 27.62890625 -20.796875 27.62890625 -20 25 C-17.890625 23.77734375 -17.890625 23.77734375 -15.25 22.9375 C-8.40106546 20.53554723 -8.40106546 20.53554723 -4.0390625 14.96875 C-3.28570623 13.00587678 -2.6347209 11.00438178 -2 9 C-1.67 9 -1.34 9 -1 9 C-0.67 6.03 -0.34 3.06 0 0 Z " fill="#BDBDBD" transform="translate(81,43)"/>
<path d="M0 0 C1.65 0.66 3.3 1.32 5 2 C3.06107769 3.46277103 1.11906832 4.91520134 -0.859375 6.32421875 C-6.08257711 10.09053597 -10.55873561 14.34612189 -15 19 C-16.09375 15.265625 -16.09375 15.265625 -15.25 12.875 C-14 11 -14 11 -11 9 C-10.34 8.01 -9.68 7.02 -9 6 C-8.01 5.67 -7.02 5.34 -6 5 C-5.67 4.34 -5.34 3.68 -5 3 C-3.66666667 2.66666667 -2.33333333 2.33333333 -1 2 C-0.67 1.34 -0.34 0.68 0 0 Z " fill="#94D1D9" transform="translate(25,3)"/>
<path d="M0 0 C0.66 0.66 1.32 1.32 2 2 C1.65066406 2.81984375 1.30132812 3.6396875 0.94140625 4.484375 C0.48636719 5.56203125 0.03132812 6.6396875 -0.4375 7.75 C-0.88996094 8.81734375 -1.34242188 9.8846875 -1.80859375 10.984375 C-2.73979553 13.3413841 -3.4784072 15.52992835 -4 18 C-4.66 18 -5.32 18 -6 18 C-5.67 18.66 -5.34 19.32 -5 20 C-4.92805131 22.88370333 -4.90708292 25.74239664 -4.9375 28.625 C-4.94201172 29.42679688 -4.94652344 30.22859375 -4.95117188 31.0546875 C-4.96296832 33.03649006 -4.98090395 35.01825433 -5 37 C-5.66 36.67 -6.32 36.34 -7 36 C-7.50212757 22.66572333 -7.29737736 11.66744003 0 0 Z " fill="#98D0D9" transform="translate(7,22)"/>
<path d="M0 0 C0.58523437 0.22042969 1.17046875 0.44085938 1.7734375 0.66796875 C-0.2265625 3.66796875 -0.2265625 3.66796875 -3.2265625 4.66796875 C-3.7834375 5.26609375 -4.3403125 5.86421875 -4.9140625 6.48046875 C-7.98239627 9.38294664 -11.23146012 11.28352733 -15.2265625 12.66796875 C-18.2265625 12.41796875 -18.2265625 12.41796875 -20.2265625 11.66796875 C-20.2265625 11.00796875 -20.2265625 10.34796875 -20.2265625 9.66796875 C-19.5975 9.44882813 -18.9684375 9.2296875 -18.3203125 9.00390625 C-12.76134242 6.9444083 -8.47813906 4.66350304 -4.015625 0.7421875 C-2.2265625 -0.33203125 -2.2265625 -0.33203125 0 0 Z " fill="#0B1F25" transform="translate(85.2265625,86.33203125)"/>
<path d="M0 0 C2.3431213 0.25561323 4.67843403 0.59270772 7 1 C7.33 1.66 7.66 2.32 8 3 C9.76005118 4.26827217 11.57528546 5.42282478 13.40625 6.5859375 C15.33158839 8.29420343 15.61651573 9.49669994 16 12 C15.01 11.67 14.02 11.34 13 11 C13 10.34 13 9.68 13 9 C11.6696875 9.185625 11.6696875 9.185625 10.3125 9.375 C6.65625418 8.96108538 6.4018787 8.75395425 4.25 6.0625 C3.5075 5.051875 2.765 4.04125 2 3 C1.34 2.67 0.68 2.34 0 2 C0 1.34 0 0.68 0 0 Z " fill="#DFE3E4" transform="translate(14,70)"/>
<path d="M0 0 C4.28314617 0.47590513 6.04803163 0.99014989 9 4 C10.53545874 4.9414298 12.10021774 5.83634864 13.6875 6.6875 C14.49574219 7.12449219 15.30398437 7.56148438 16.13671875 8.01171875 C16.75160156 8.33785156 17.36648437 8.66398437 18 9 C18 9.33 18 9.66 18 10 C14.66666667 10 11.33333333 10 8 10 C7.67 9.34 7.34 8.68 7 8 C6.01 7.67 5.02 7.34 4 7 C2.9375 5.125 2.9375 5.125 2 3 C1.34 2.01 0.68 1.02 0 0 Z " fill="#44787E" transform="translate(11,83)"/>
<path d="M0 0 C2.31 0 4.62 0 7 0 C7 3 7 3 6 6 C1.45194365 6.17835515 -1.8794254 5.99785435 -6 4 C-6 3.67 -6 3.34 -6 3 C-4.02 2.67 -2.04 2.34 0 2 C0 1.34 0 0.68 0 0 Z " fill="#C3CCCE" transform="translate(31,80)"/>
<path d="M0 0 C2.3538796 3.97217182 2.09427499 7.06736266 1.875 11.5625 C2.01081613 14.21091459 2.66008686 15.73889657 4 18 C3.34 18.33 2.68 18.66 2 19 C-2.25587646 13.04177295 -0.85783227 6.96601142 0 0 Z " fill="#488793" transform="translate(78,22)"/>
<path d="M0 0 C0.33 1.32 0.66 2.64 1 4 C-3.75 7 -3.75 7 -6 7 C-6 7.66 -6 8.32 -6 9 C-7.32 8.67 -8.64 8.34 -10 8 C-9.44570312 7.59007813 -8.89140625 7.18015625 -8.3203125 6.7578125 C-7.59585938 6.21898438 -6.87140625 5.68015625 -6.125 5.125 C-5.04605469 4.32449219 -5.04605469 4.32449219 -3.9453125 3.5078125 C-1.91747368 2.00126838 -1.91747368 2.00126838 0 0 Z " fill="#2B5E66" transform="translate(79,61)"/>
<path d="M0 0 C0.33 0 0.66 0 1 0 C1.05449838 1.72880982 1.09301688 3.45812712 1.125 5.1875 C1.14820312 6.15042969 1.17140625 7.11335938 1.1953125 8.10546875 C0.9913544 11.12812778 0.26874632 13.26769985 -1 16 C-1.99 16 -2.98 16 -4 16 C-3.34 13.69 -2.68 11.38 -2 9 C-1.67 9 -1.34 9 -1 9 C-0.67 6.03 -0.34 3.06 0 0 Z " fill="#C0C5C7" transform="translate(81,43)"/>
<path d="M0 0 C10.55808656 0.77904328 10.55808656 0.77904328 15 3 C14.67 3.66 14.34 4.32 14 5 C12.989375 4.67 11.97875 4.34 10.9375 4 C7.24520089 2.92998679 3.84751793 2.84295845 0 3 C0 2.01 0 1.02 0 0 Z " fill="#2B6C72" transform="translate(22,92)"/>
<path d="M0 0 C0 0.66 0 1.32 0 2 C-1.33038449 2.3449145 -2.66457061 2.67516582 -4 3 C-4.825 3.2475 -5.65 3.495 -6.5 3.75 C-9 4 -9 4 -11.3125 2.5625 C-11.869375 2.046875 -12.42625 1.53125 -13 1 C-8.62426048 0.40667939 -4.42471556 -0.13827236 0 0 Z " fill="#93C8D9" transform="translate(40,1)"/>
<path d="M0 0 C0.8353125 0.37125 0.8353125 0.37125 1.6875 0.75 C-0.3125 3.75 -0.3125 3.75 -3.3125 4.75 C-3.6425 5.41 -3.9725 6.07 -4.3125 6.75 C-6.3125 5.75 -6.3125 5.75 -7.3125 3.75 C-2.88173077 -0.31153846 -2.88173077 -0.31153846 0 0 Z " fill="#0B2D29" transform="translate(85.3125,86.25)"/>
<path d="M0 0 C3.78611227 0.54087318 5.55400767 2.11722332 8 5 C8 5.66 8 6.32 8 7 C7.01 6.67 6.02 6.34 5 6 C5 5.34 5 4.68 5 4 C4.01 4 3.02 4 2 4 C2 3.34 2 2.68 2 2 C1.34 2 0.68 2 0 2 C0 1.34 0 0.68 0 0 Z " fill="#B9CED2" transform="translate(22,75)"/>
<path d="M0 0 C1.98 0 3.96 0 6 0 C7.2077558 3.62326739 6.54311128 4.64146369 5 8 C4.67 8 4.34 8 4 8 C3.896875 7.236875 3.79375 6.47375 3.6875 5.6875 C2.95635961 2.82940576 2.23048087 1.84257115 0 0 Z " fill="#5D969E" transform="translate(33,70)"/>
<path d="M0 0 C1.98 0 3.96 0 6 0 C5 2 5 2 1.9375 3.125 C0.968125 3.41375 -0.00125 3.7025 -1 4 C-0.67 2.68 -0.34 1.36 0 0 Z " fill="#2C585F" transform="translate(62,70)"/>
<path d="M0 0 C0 0.99 0 1.98 0 3 C-0.99 3.495 -0.99 3.495 -2 4 C-1.34 2.68 -0.68 1.36 0 0 Z " fill="#002A2A" transform="translate(89,83)"/>
<path d="M0 0 C0.99 0.495 0.99 0.495 2 1 C1.67 1.99 1.34 2.98 1 4 C0.67 2.68 0.34 1.36 0 0 Z " fill="#336699" transform="translate(96,26)"/>
<path d="M0 0 C0 3 0 3 0 3 Z " fill="#004A4A" transform="translate(93,78)"/>
<path d="M0 0 C3 1 3 1 3 1 Z " fill="#002626" transform="translate(32,99)"/>
<path d="" fill="#8DA2BF" transform="translate(0,0)"/>
<path d="" fill="#BFE9E9" transform="translate(0,0)"/>
<path d="" fill="#1C388D" transform="translate(0,0)"/>
<path d="M0 0 C0.66 0 1.32 0 2 0 C1.67 0.66 1.34 1.32 1 2 C0.67 1.34 0.34 0.68 0 0 Z " fill="#38C6C6" transform="translate(86,13)"/>
<path d="M0 0 C3 1 3 1 3 1 Z " fill="#33BBCC" transform="translate(32,0)"/>
<path d="M0 0 C2 1 2 1 2 1 Z " fill="#003F3F" transform="translate(30,98)"/>
<path d="" fill="#7FBFBF" transform="translate(0,0)"/>
<path d="" fill="#000000" transform="translate(0,0)"/>
<path d="" fill="#1F3F3F" transform="translate(0,0)"/>
<path d="" fill="#72A5E5" transform="translate(0,0)"/>
<path d="" fill="#6A6ABF" transform="translate(0,0)"/>
<path d="" fill="#002A2A" transform="translate(0,0)"/>
<path d="" fill="#BFFFFF" transform="translate(0,0)"/>
<path d="" fill="#BFFFFF" transform="translate(0,0)"/>
<path d="" fill="#94BFBF" transform="translate(0,0)"/>
<path d="" fill="#CCE5E5" transform="translate(0,0)"/>
<path d="" fill="#198C8C" transform="translate(0,0)"/>
<path d="" fill="#2AD4D4" transform="translate(0,0)"/>
<path d="" fill="#FFFFFF" transform="translate(0,0)"/>
<path d="M0 0 C2 1 2 1 2 1 Z " fill="#BFBFFF" transform="translate(22,5)"/>
<path d="M0 0 C2 1 2 1 2 1 Z " fill="#7FFFFF" transform="translate(30,1)"/>
<path d="" fill="#005555" transform="translate(0,0)"/>
<path d="" fill="#000000" transform="translate(0,0)"/>
<path d="" fill="#007F7F" transform="translate(0,0)"/>
<path d="" fill="#3F7F7F" transform="translate(0,0)"/>
<path d="" fill="#55AAAA" transform="translate(0,0)"/>
<path d="" fill="#3F7F7F" transform="translate(0,0)"/>
<path d="" fill="#555555" transform="translate(0,0)"/>
<path d="" fill="#003366" transform="translate(0,0)"/>
<path d="" fill="#007F7F" transform="translate(0,0)"/>
<path d="" fill="#3F7F7F" transform="translate(0,0)"/>
<path d="" fill="#55AAAA" transform="translate(0,0)"/>
<path d="" fill="#7F7FFF" transform="translate(0,0)"/>
<path d="" fill="#AAFFFF" transform="translate(0,0)"/>
<path d="" fill="#3F7F7F" transform="translate(0,0)"/>
<path d="" fill="#AAFFFF" transform="translate(0,0)"/>
<path d="" fill="#7FBFBF" transform="translate(0,0)"/>
<path d="" fill="#6699CC" transform="translate(0,0)"/>
<path d="" fill="#7F7F7F" transform="translate(0,0)"/>
<path d="" fill="#7F7F7F" transform="translate(0,0)"/>
<path d="" fill="#55AAAA" transform="translate(0,0)"/>
<path d="" fill="#7FFFFF" transform="translate(0,0)"/>
<path d="" fill="#669999" transform="translate(0,0)"/>
<path d="" fill="#55AAAA" transform="translate(0,0)"/>
<path d="" fill="#55AAAA" transform="translate(0,0)"/>
</svg>
