<?xml version="1.0" encoding="UTF-8"?>
<svg version="1.1" xmlns="http://www.w3.org/2000/svg" width="48" height="48">
<path d="M0 0 C4.68796317 2.8950501 8.77605467 6.42344712 10.234375 11.89453125 C11.16656452 18.74158704 11.3930195 24.99387098 7.671875 31.01953125 C3.66347868 35.99068326 0.31000422 38.47580101 -6.0078125 39.3359375 C-13.1275177 39.69575056 -18.34453314 39.19135672 -23.98828125 34.640625 C-29.08369757 29.63479842 -30.03494232 26.05750776 -30.390625 19.01953125 C-30.17838344 12.13997715 -28.58962241 7.80486419 -23.765625 2.89453125 C-17.29271618 -2.6344117 -7.84970384 -3.13766411 0 0 Z " fill="#0CBCD4" transform="translate(33.765625,5.10546875)"/>
<path d="M0 0 C1.485 0.2475 1.485 0.2475 3 0.5 C8.41454259 1.26879915 13.68767967 1.48415158 19 0 C19.13526139 2.24834496 19.23210804 4.49902514 19.3125 6.75 C19.37050781 8.00296875 19.42851563 9.2559375 19.48828125 10.546875 C19 14 19 14 16.46875 16.21875 C15.6540625 16.8065625 14.839375 17.394375 14 18 C14.0636079 21.70054409 14.0636079 21.70054409 15 25 C13.741875 25.185625 12.48375 25.37125 11.1875 25.5625 C10.47980469 25.66691406 9.77210937 25.77132812 9.04296875 25.87890625 C7 26 7 26 4 25 C4 24.01 4 23.02 4 22 C3.401875 21.9175 2.80375 21.835 2.1875 21.75 C-0.5966296 20.79544128 -1.43311142 19.42867729 -3 17 C-2.4225 17.309375 -1.845 17.61875 -1.25 17.9375 C0.84294184 18.92583364 2.74535275 19.5168613 5 20 C5 19.01 5 18.02 5 17 C4.195625 16.5875 3.39125 16.175 2.5625 15.75 C0 14 0 14 -0.875 10.75 C-0.99946011 7.01619671 -0.67386758 3.66883458 0 0 Z " fill="#4A5F69" transform="translate(15,14)"/>
<path d="M0 0 C5.54648833 1.98551333 9.38327402 5.76654805 12 11 C12.04022391 13.3329866 12.04320247 15.66706666 12 18 C10.35 18 8.7 18 7 18 C6.01751476 13.9472484 5.91840426 10.16138263 6 6 C5.4534375 6.32484375 4.906875 6.6496875 4.34375 6.984375 C1.56725791 8.18752157 -0.48274382 8.26657833 -3.5 8.25 C-4.4384375 8.25515625 -5.376875 8.2603125 -6.34375 8.265625 C-9.04047676 7.99595232 -10.68949293 7.3732259 -13 6 C-13.08107583 7.93681161 -13.13922475 9.8745934 -13.1875 11.8125 C-13.22230469 12.89144531 -13.25710937 13.97039063 -13.29296875 15.08203125 C-13.26507946 17.99271941 -13.26507946 17.99271941 -11.59375 19.78125 C-11.0678125 20.1834375 -10.541875 20.585625 -10 21 C-9 22 -8 23 -7 24 C-7.33 24.66 -7.66 25.32 -8 26 C-9.65 25.67 -11.3 25.34 -13 25 C-13 25.33 -13 25.66 -13 26 C-11.68 26.66 -10.36 27.32 -9 28 C-9 28.99 -9 29.98 -9 31 C-14.02898754 29.56314642 -15.95677502 27.05763331 -19 23 C-20.85602244 19.28795513 -20.44875601 15.0512695 -20 11 C-15.66224248 2.32448497 -9.35320785 -1.10398519 0 0 Z " fill="#F1F9FA" transform="translate(28,8)"/>
<path d="M0 0 C3.51436783 0.40864742 4.42352356 1.67119415 6.6875 4.3125 C7.265 4.89 7.8425 5.4675 8.4375 6.0625 C8.85 6.475 9.2625 6.8875 9.6875 7.3125 C9.3575 7.9725 9.0275 8.6325 8.6875 9.3125 C7.0375 8.9825 5.3875 8.6525 3.6875 8.3125 C3.6875 8.6425 3.6875 8.9725 3.6875 9.3125 C5.0075 9.9725 6.3275 10.6325 7.6875 11.3125 C7.6875 12.3025 7.6875 13.2925 7.6875 14.3125 C2.80810824 12.91838807 0.57917771 10.40904343 -2.3125 6.3125 C-3.1875 3.5 -3.1875 3.5 -3.3125 1.3125 C-2.3125 0.3125 -2.3125 0.3125 0 0 Z " fill="#E4EEF0" transform="translate(11.3125,24.6875)"/>
<path d="M0 0 C-0.07645748 3.21121436 -0.38102195 5.32475122 -2.58984375 7.734375 C-7.55625 12 -7.55625 12 -9 12 C-9.66 9.36 -10.32 6.72 -11 4 C-7.20307814 1.17438373 -4.81430721 -0.56638908 0 0 Z " fill="#F3FAFB" transform="translate(39,27)"/>
</svg>
