<?xml version="1.0" encoding="UTF-8"?>
<svg version="1.1" xmlns="http://www.w3.org/2000/svg" width="100" height="100">
<path d="M0 0 C1.62453542 1.01580146 3.2251263 2.06959899 4.82421875 3.125 C6.94653502 3.58000652 6.94653502 3.58000652 9.13671875 3.75 C12.82421875 4.125 12.82421875 4.125 14.82421875 6.125 C14.82421875 7.115 14.82421875 8.105 14.82421875 9.125 C16.47421875 9.125 18.12421875 9.125 19.82421875 9.125 C20.31921875 10.61 20.31921875 10.61 20.82421875 12.125 C22.80467434 12.78679847 22.80467434 12.78679847 24.82421875 13.125 C25.82421875 14.125 25.82421875 14.125 26.01171875 17.0625 C25.82421875 20.125 25.82421875 20.125 23.82421875 22.125 C21.83600562 22.52264263 19.83477536 22.86275349 17.82421875 23.125 C18.81421875 24.2078125 18.81421875 24.2078125 19.82421875 25.3125 C22.76298781 29.58707318 22.0337374 34.21950717 21.76953125 39.19921875 C21.56491322 42.32001654 21.56491322 42.32001654 23.82421875 45.125 C24.5003054 49.76326887 24.41023314 53.84642314 22.44921875 58.125 C19.12043788 60.66121399 16.34613285 60.91729557 12.26953125 61.5234375 C9.49492873 62.00733421 9.49492873 62.00733421 6.82421875 64.75 C3.05826817 67.73137754 0.84865563 67.61941655 -3.80859375 67.49609375 C-6.28273527 67.10823328 -8.0145757 66.36495434 -10.17578125 65.125 C-11.10390625 65.929375 -12.03203125 66.73375 -12.98828125 67.5625 C-16.98236959 71.02404323 -20.28562766 71.26200151 -25.48828125 71.25 C-27.15310547 71.25386719 -27.15310547 71.25386719 -28.8515625 71.2578125 C-32.08718708 71.1285396 -35.03297721 70.91410231 -38.17578125 70.125 C-38.83578125 69.135 -39.49578125 68.145 -40.17578125 67.125 C-43.24134723 66.39156572 -43.24134723 66.39156572 -46.17578125 66.125 C-44.19578125 65.135 -44.19578125 65.135 -42.17578125 64.125 C-42.65015625 63.526875 -43.12453125 62.92875 -43.61328125 62.3125 C-46.46871559 58.31489192 -46.26588799 54.90065701 -46.17578125 50.125 C-46.95824219 50.13660156 -47.74070312 50.14820313 -48.546875 50.16015625 C-49.55878906 50.16917969 -50.57070313 50.17820313 -51.61328125 50.1875 C-52.62261719 50.19910156 -53.63195312 50.21070313 -54.671875 50.22265625 C-57.17578125 50.125 -57.17578125 50.125 -58.17578125 49.125 C-58.33001374 46.69287228 -58.40744871 44.30864433 -58.42578125 41.875 C-58.44640625 41.20597656 -58.46703125 40.53695312 -58.48828125 39.84765625 C-58.52323349 35.39998324 -57.92162568 32.64070736 -55.17578125 29.125 C-52.17578125 27.125 -52.17578125 27.125 -49.17578125 27.125 C-49.08296875 25.7946875 -49.08296875 25.7946875 -48.98828125 24.4375 C-47.72137942 19.2724387 -44.47636928 16.99205868 -40.17578125 14.125 C-37.59621711 13.8323428 -35.04725255 13.74786691 -32.453125 13.6640625 C-30.02105919 13.3516981 -30.02105919 13.3516981 -28.8046875 11.2109375 C-27.90581328 9.09296552 -27.90581328 9.09296552 -29.17578125 7.125 C-28.18578125 6.5371875 -28.18578125 6.5371875 -27.17578125 5.9375 C-24.33225262 4.31282262 -24.33225262 4.31282262 -22.5546875 2.8125 C-16.22252043 -1.98088238 -7.44919752 -2.99572755 0 0 Z " fill="#C5EAE3" transform="translate(67.17578125,14.875)"/>
<path d="M0 0 C3.375 -0.125 3.375 -0.125 7 0 C9 2 9 2 9 5 C10.65 5 12.3 5 14 5 C14.495 6.485 14.495 6.485 15 8 C16.98045559 8.66179847 16.98045559 8.66179847 19 9 C20 10 20 10 20.1875 12.9375 C20 16 20 16 18 18 C15.1796875 18.1953125 15.1796875 18.1953125 11.875 18.125 C10.77929688 18.10695313 9.68359375 18.08890625 8.5546875 18.0703125 C7.71164063 18.04710938 6.86859375 18.02390625 6 18 C6.01571045 18.95366455 6.0314209 19.9073291 6.04760742 20.88989258 C6.10191678 24.42886913 6.13635333 27.96780886 6.16479492 31.50708008 C6.17987936 33.03871861 6.20034978 34.57031398 6.22631836 36.10180664 C6.26271847 38.30365654 6.27972913 40.50493533 6.29296875 42.70703125 C6.30845261 43.39150833 6.32393646 44.07598541 6.33988953 44.78120422 C6.34157282 49.53883754 6.34157282 49.53883754 4.75520325 51.68061829 C2.5427281 53.3437301 1.32653445 53.37980739 -1.42382812 53.38818359 C-2.31485229 53.39764008 -3.20587646 53.40709656 -4.12390137 53.4168396 C-5.08332642 53.41076691 -6.04275146 53.40469421 -7.03125 53.3984375 C-8.01871216 53.40130768 -9.00617432 53.40417786 -10.02355957 53.40713501 C-12.1115781 53.40917675 -14.1996157 53.40363925 -16.28759766 53.39111328 C-19.48773883 53.3750615 -22.68661696 53.39095859 -25.88671875 53.41015625 C-27.91406529 53.40817384 -29.94141105 53.40433021 -31.96875 53.3984375 C-33.40788757 53.40754654 -33.40788757 53.40754654 -34.87609863 53.4168396 C-35.7671228 53.40738312 -36.65814697 53.39792664 -37.57617188 53.38818359 C-38.35988159 53.38579681 -39.14359131 53.38341003 -39.9510498 53.38095093 C-42.56997057 52.89402826 -43.46700169 52.16226482 -45 50 C-45 48.68 -45 47.36 -45 46 C-46.65 46 -48.3 46 -50 46 C-50 45.67 -50 45.34 -50 45 C-45.545 44.505 -45.545 44.505 -41 44 C-41 42.68 -41 41.36 -41 40 C-41.94875 39.566875 -42.8975 39.13375 -43.875 38.6875 C-47 37 -47 37 -49 34 C-52.41441762 34.78794253 -55.72076495 35.76117787 -59 37 C-59.33 37.66 -59.66 38.32 -60 39 C-60.66 38.67 -61.32 38.34 -62 38 C-60.29904295 35.16507158 -59.20133326 34.0875362 -56.125 32.75 C-53.22214237 32.05331417 -50.96005821 31.67110464 -48 32 C-47.34 32.66 -46.68 33.32 -46 34 C-45.96261719 32.73542969 -45.92523438 31.47085938 -45.88671875 30.16796875 C-45.82106167 28.5077827 -45.75461424 26.84762778 -45.6875 25.1875 C-45.66494141 24.35412109 -45.64238281 23.52074219 -45.61914062 22.66210938 C-45.58369141 21.85966797 -45.54824219 21.05722656 -45.51171875 20.23046875 C-45.47244263 19.12288208 -45.47244263 19.12288208 -45.43237305 17.99291992 C-44.86099893 15.35930786 -44.24449651 14.50571239 -42 13 C-39.08911133 12.65942383 -39.08911133 12.65942383 -35.58203125 12.70703125 C-34.32841797 12.71669922 -33.07480469 12.72636719 -31.78320312 12.73632812 C-30.47287109 12.76146484 -29.16253906 12.78660156 -27.8125 12.8125 C-26.47722837 12.82755033 -25.14194063 12.84123813 -23.80664062 12.85351562 C-20.53735424 12.88892306 -17.26887907 12.9383111 -14 13 C-13.67 12.34 -13.34 11.68 -13 11 C-13 11.66 -13 12.32 -13 13 C-11.87980469 12.96519531 -10.75960937 12.93039063 -9.60546875 12.89453125 C-8.13282749 12.86639161 -6.66017002 12.83909163 -5.1875 12.8125 C-4.08051758 12.77479492 -4.08051758 12.77479492 -2.95117188 12.73632812 C2.62527863 12.6606297 2.62527863 12.6606297 4.65625 14.5 C5.0996875 14.995 5.543125 15.49 6 16 C8.74243563 16.36270484 8.74243563 16.36270484 11.6875 16.1875 C13.17830078 16.14689453 13.17830078 16.14689453 14.69921875 16.10546875 C15.45847656 16.07066406 16.21773438 16.03585938 17 16 C17.33 14.35 17.66 12.7 18 11 C17.360625 10.71125 16.72125 10.4225 16.0625 10.125 C14 9 14 9 13 7 C11.35 7 9.7 7 8 7 C7.505 5.02 7.505 5.02 7 3 C4.69 2.67 2.38 2.34 0 2 C0 1.34 0 0.68 0 0 Z " fill="#76A6A3" transform="translate(73,19)"/>
<path d="M0 0 C2.875 0.25 2.875 0.25 6 1 C6.69937532 2.31647119 7.36729133 3.65022151 8 5 C10.55519921 5.81171228 10.55519921 5.81171228 13 6 C13 6.66 13 7.32 13 8 C14.32 8.33 15.64 8.66 17 9 C17.625 11.375 17.625 11.375 18 14 C15.39813892 16.60186108 14.17645645 16.29810177 10.5625 16.3125 C9.11037109 16.33763672 9.11037109 16.33763672 7.62890625 16.36328125 C5 16 5 16 3.6328125 14.5234375 C0.99632588 12.06355764 -2.2516357 12.42478315 -5.6875 12.3125 C-6.7403418 12.26125977 -6.7403418 12.26125977 -7.81445312 12.20898438 C-9.54241387 12.12670053 -11.27118072 12.0616676 -13 12 C-12.52949219 11.39671875 -12.05898438 10.7934375 -11.57421875 10.171875 C-9.90490304 7.86879924 -8.96257263 5.66558574 -8 3 C-6.35 3.33 -4.7 3.66 -3 4 C-2.01 2.68 -1.02 1.36 0 0 Z " fill="#F2F0E3" transform="translate(74,20)"/>
<path d="M0 0 C2 0.25 2 0.25 4 1 C4.33 1.99 4.66 2.98 5 4 C6.32488113 4.36548445 7.66018514 4.6937566 9 5 C11.25 6.5625 11.25 6.5625 13 8 C12.44921875 9.9453125 12.44921875 9.9453125 11 12 C7.76953125 12.6796875 7.76953125 12.6796875 3.8125 12.875 C2.51957031 12.95492187 1.22664063 13.03484375 -0.10546875 13.1171875 C-4.20422932 12.99385468 -7.14406956 12.29031135 -11 11 C-10.67 9.35 -10.34 7.7 -10 6 C-9.34 6 -8.68 6 -8 6 C-7.6596875 5.0409375 -7.6596875 5.0409375 -7.3125 4.0625 C-6 2 -6 2 -3.4375 1.3125 C-2.633125 1.209375 -1.82875 1.10625 -1 1 C-0.67 0.67 -0.34 0.34 0 0 Z " fill="#F5F3E7" transform="translate(21,52)"/>
<path d="M0 0 C0.99 0 1.98 0 3 0 C3.67413211 1.91405367 4.3390332 3.83136026 5 5.75 C5.37125 6.81734375 5.7425 7.8846875 6.125 8.984375 C7 12 7 12 7 16 C6.34 16 5.68 16 5 16 C4.67 15.34 4.34 14.68 4 14 C0.97065509 13.34227572 0.97065509 13.34227572 -2 13 C-2 13.99 -2 14.98 -2 16 C-2.99 16 -3.98 16 -5 16 C-4.54762239 14.08191891 -4.08785537 12.16557967 -3.625 10.25 C-3.24214844 8.64898437 -3.24214844 8.64898437 -2.8515625 7.015625 C-2.12466459 4.44147278 -1.2973776 2.32399814 0 0 Z " fill="#5C6461" transform="translate(43,44)"/>
<path d="M0 0 C2.64 0 5.28 0 8 0 C10 2 10 2 10.25 5 C10 8 10 8 8 10 C4.875 10.125 4.875 10.125 2 10 C2 11.98 2 13.96 2 16 C1.34 16 0.68 16 0 16 C0 10.72 0 5.44 0 0 Z " fill="#472B29" transform="translate(52,44)"/>
<path d="M0 0 C0.99 0 1.98 0 3 0 C3 5.61 3 11.22 3 17 C2.01 16.67 1.02 16.34 0 16 C0 10.72 0 5.44 0 0 Z " fill="#55514F" transform="translate(64,44)"/>
<path d="M0 0 C1.98 0 3.96 0 6 0 C6 0.99 6 1.98 6 3 C7.65 3.33 9.3 3.66 11 4 C11 4.33 11 4.66 11 5 C3.375 6 3.375 6 0 6 C-0.66 5.34 -1.32 4.68 -2 4 C-3.98821313 3.60235737 -5.98944339 3.26224651 -8 3 C-8 2.67 -8 2.34 -8 2 C-5.36 1.67 -2.72 1.34 0 1 C0 0.67 0 0.34 0 0 Z " fill="#F1FAF8" transform="translate(29,78)"/>
<path d="M0 0 C0.33 0.99 0.66 1.98 1 3 C2.423125 2.690625 2.423125 2.690625 3.875 2.375 C4.90625 2.25125 5.9375 2.1275 7 2 C9 4 9 4 9 8 C8.34 8 7.68 8 7 8 C6.67 7.34 6.34 6.68 6 6 C2.97065509 5.34227572 2.97065509 5.34227572 0 5 C0 5.99 0 6.98 0 8 C-0.99 8 -1.98 8 -3 8 C-1.125 1.125 -1.125 1.125 0 0 Z " fill="#4B3634" transform="translate(41,52)"/>
<path d="M0 0 C1.65 0 3.3 0 5 0 C5.625 2.375 5.625 2.375 6 5 C5.34 5.66 4.68 6.32 4 7 C2.68 7 1.36 7 0 7 C0 4.69 0 2.38 0 0 Z " fill="#78ADAA" transform="translate(54,46)"/>
<path d="M0 0 C1.98 0 3.96 0 6 0 C6.33 0.99 6.66 1.98 7 3 C9.475 3.495 9.475 3.495 12 4 C12 4.33 12 4.66 12 5 C8.37 5 4.74 5 1 5 C1 4.34 1 3.68 1 3 C-1.97 3 -4.94 3 -8 3 C-8 2.67 -8 2.34 -8 2 C-5.36 1.67 -2.72 1.34 0 1 C0 0.67 0 0.34 0 0 Z " fill="#F3FBF9" transform="translate(46,20)"/>
<path d="M0 0 C6.0546875 -0.1953125 6.0546875 -0.1953125 8 0 C10 2 10 2 10.3125 5 C10.1578125 6.485 10.1578125 6.485 10 8 C9.01 8.66 8.02 9.32 7 10 C7 7 7 4 7 1 C4.69 1 2.38 1 0 1 C0 0.67 0 0.34 0 0 Z " fill="#4D3B38" transform="translate(52,44)"/>
<path d="M0 0 C0.66 0.33 1.32 0.66 2 1 C0.73058503 4.91402949 -0.51167694 6.79072873 -4 9 C-4 5 -4 5 -2.5625 3.375 C-2.046875 2.92125 -1.53125 2.4675 -1 2 C-0.67 1.34 -0.34 0.68 0 0 Z " fill="#A0958D" transform="translate(64,23)"/>
<path d="M0 0 C3 1 3 1 3 1 Z " fill="#FFFFFF" transform="translate(23,82)"/>
</svg>
